<?xml version="1.0" encoding="utf-8"?>
<!-- Generator: Adobe Illustrator 24.0.1, SVG Export Plug-In . SVG Version: 6.00 Build 0)  -->
<svg version="1.1" id="Layer_1" xmlns="http://www.w3.org/2000/svg" xmlns:xlink="http://www.w3.org/1999/xlink" x="0px" y="0px"
	 viewBox="0 0 3000 1500" style="enable-background:new 0 0 3000 1500;" xml:space="preserve">
<style type="text/css">
	.st0{fill:#084477;}
</style>
<g>
	<g>
		<path class="st0" d="M1726.7,418.3c-49.2-43.2-133.2-30-184.8-4.8c-73.2,40.8-129.6,116.4-135.6,198
			c-3.6,39.6,7.2,76.8,39.6,100.8c66,40.8,152.4,12,208.8-26.4c49.2-38.4,82.8-88.8,99.6-144
			C1766.3,501.1,1760.3,450.7,1726.7,418.3z M1515.5,711.1c-70.8,0,75.6-292.8,133.2-292.8C1705.1,418.3,1586.3,711.1,1515.5,711.1z
			"/>
	</g>
	<polygon class="st0" points="1352.3,670.3 1225.1,669.1 1247.9,604.3 1376.3,604.3 	"/>
	<path class="st0" d="M500.3,699.1l-10.8,25.2H302.3l4.8-28.8c0,0,37.2,2.4,43.2-19.2l37.2-84h-70.8c-30,27.6-55.2,50.4-96,88.8
		c-38.4,36-87.6,58.8-144,40.8c-40.8-15.6-69.6-42-76.8-84c0-2.4,0-6,0-9.6c0-20.4,9.6-62.4,56.4-62.4c39.6,0,51.6,37.2,51.6,49.2
		c0,28.8-19.2,45.6-42,46.8c19.2,26.4,49.2,24,75.6,14.4c62.4-27.6,338.4-315.6,338.4-315.6h129.6c0,0-138,320.4-140.4,324
		C467.9,689.5,469.1,696.7,500.3,699.1z M449.9,450.7l-90,100.8h45.6L449.9,450.7L449.9,450.7z"/>
	<path class="st0" d="M1125.5,501.1c153.6,0,94.8,222-72,222C914.3,723.1,964.7,501.1,1125.5,501.1z M1048.7,702.7
		c44.4,0,117.6-182.4,82.8-182.4C1095.5,520.3,1004.3,702.7,1048.7,702.7z"/>
	<path class="st0" d="M827.9,509.5c-45.6,111.6-70.8,162-64.8,166.8s36-34.8,43.2-30c8.4,4.8-30,82.8-84,82.8
		c-52.8,0-48-50.4-48-50.4c-20.4,16.8-50.4,48-93.6,48c-31.2,0-74.4-26.4,1.2-158.4c12-22.8-26.4,12-30,6
		c-7.2-13.2,31.2-69.6,98.4-69.6c82.8,0-51.6,170.4-21.6,170.4c20.4,0,50.4-19.2,120-164.4c3.6-6,4.8-4.8,8.4-4.8
		c25.2,0,63.6,0,63.6,0C824.3,504.7,829.1,504.7,827.9,509.5z"/>
	<path class="st0" d="M862.7,533.5c9.6,0,10.8,6,3.6,20.4c-15.6,33.6-27.6,60-37.2,80.4c-22.8,48-12,92.4,27.6,92.4
		c64.8,0,102-67.2,99.6-74.4c-4.8-18-33.6,27.6-49.2,20.4c-12-6,4.8-33.6,50.4-132c1.2-2.4,6-7.2,13.2-7.2c9.6,0,18,0,28.8,0
		c3.6,0,7.2-2.4,10.8-12c3.6-10.8,4.8-15.6,0-15.6h-24c-4.8,0-9.6-3.6-7.2-12l24-52.8h-79.2l-32.4,57.6c-3.6,4.8-6,7.2-14.4,7.2
		h-19.2c-6,0-8.4,6-10.8,12c-3.6,7.2-3.6,15.6,1.2,15.6L862.7,533.5L862.7,533.5z"/>
	<path class="st0" d="M2971.1,579.1c-15.6,3.6-33.6,0-37.2-18l3.6-30c-13.2-7.2-27.6,6-30,18c-1.2,45.6,82.8,57.6,51.6,111.6
		c-24,49.2-76.8,68.4-128.4,63.6c-18,0-38.4-10.8-44.4-27.6c-4.8-21.6,7.2-33.6,22.8-44.4c16.8-4.8,34.8,1.2,43.2,16.8
		c9.6,13.2-10.8,28.8,3.6,37.2c16.8,3.6,28.8-15.6,32.4-28.8c-9.6-45.6-94.8-67.2-56.4-124.8c34.8-40.8,96-51.6,147.6-38.4
		C3013.1,526.3,3002.3,577.9,2971.1,579.1L2971.1,579.1z"/>
	<path class="st0" d="M2078.3,724.3h75.6c60-123.6,105.6-169.2,127.2-169.2c31.2,0-124.8,174-14.4,174c62.4,0,97.2-64.8,94.8-72
		c-4.8-16.8-31.2,26.4-46.8,19.2c-12-6,58.8-87.6,58.8-122.4c0-20.4-10.8-46.8-48-46.8c-32.4,0-68.4,30-87.6,45.6
		c4.8-36-8.4-46.8-30-46.8c-56.4,0-106.8,61.2-99.6,78c4.8,10.8,21.6-15.6,30-15.6C2149.1,569.5,2093.9,683.5,2078.3,724.3z"/>
	<path class="st0" d="M2743.1,565.9c-15.6,3.6-33.6,27.6-97.2,159.6h-75.6c18-42,78-160.8,66-160.8c-8.4,0-20.4,12-27.6,3.6
		c-6-7.2,50.4-62.4,86.4-62.4c24,0,30,12,25.2,48c15.6-26.4,43.2-50.4,69.6-50.4c20.4,0,28.8,13.2,28.8,31.2
		C2817.5,568.3,2769.5,610.3,2743.1,565.9z"/>
	<path class="st0" d="M2461.1,634.3c0,0-34.8,55.2,9.6,55.2c48,0,82.8-63.6,82.8-37.2c0,14.4-44.4,73.2-114,73.2
		c-44.4,0-72-21.6-72-62.4c0-66,86.4-160.8,170.4-160.8c33.6,0,60,14.4,60,44.4C2599.1,576.7,2563.1,613.9,2461.1,634.3z
		 M2531.9,531.1c-24,0-66,69.6-46.8,69.6C2515.1,600.7,2557.1,531.1,2531.9,531.1z"/>
	<path class="st0" d="M1863.5,508.3c-69.6,0-111.6,49.2-103.2,69.6c3.6,9.6,28.8-26.4,32.4-15.6c2.4,8.4-99.6,146.4-1.2,162
		c32.4,4.8,58.8-25.2,93.6-50.4c-1.2,28.8,24,51.6,52.8,51.6c43.2,0,130.8-66,165.6-175.2c4.8-22.8-8.4-42-25.2-42
		c-39.6,0-66,50.4-28.8,80.4c-30,67.2-56.4,94.8-78,94.8c-20.4,0,36-140.4,50.4-170.4l-74.4,1.2c-48,92.4-80.4,157.2-114,157.2
		c-16.8,0,34.8-76.8,48-103.2C1895.9,537.1,1897.1,508.3,1863.5,508.3z"/>
	<g>
		<path class="st0" d="M761.9,816.7h30v138h-30V816.7z"/>
		<path class="st0" d="M975.5,816.7h28.8v138h-28.8l-63.6-90v88.8h-30V816.7h30l63.6,88.8V816.7z"/>
		<path class="st0" d="M1173.5,828.7l-18,20.4c-9.6-6-16.8-8.4-20.4-8.4c-3.6,0-6,1.2-8.4,3.6c-2.4,2.4-3.6,6-3.6,8.4
			c0,7.2,6,13.2,18,18c9.6,3.6,15.6,7.2,20.4,10.8c4.8,3.6,8.4,7.2,12,13.2c3.6,6,4.8,12,4.8,18c0,12-4.8,21.6-14.4,31.2
			c-9.6,8.4-20.4,13.2-33.6,13.2c-14.4,0-28.8-7.2-42-20.4l19.2-22.8c8.4,9.6,16.8,13.2,24,13.2c3.6,0,7.2-1.2,10.8-4.8
			c3.6-3.6,4.8-6,4.8-9.6c0-7.2-7.2-13.2-22.8-19.2c-8.4-3.6-14.4-6-18-8.4c-3.6-2.4-7.2-7.2-9.6-12c-2.4-4.8-3.6-10.8-3.6-16.8
			c0-12,3.6-21.6,12-30c8.4-7.2,18-12,31.2-12C1150.7,814.3,1163.9,819.1,1173.5,828.7z"/>
		<path class="st0" d="M1263.5,816.7h28.8v84c0,8.4,2.4,14.4,6,19.2c4.8,4.8,9.6,7.2,16.8,7.2c8.4,0,14.4-2.4,19.2-7.2
			c4.8-4.8,7.2-12,7.2-20.4v-82.8h28.8v88.8c0,8.4-2.4,15.6-6,24c-3.6,8.4-10.8,14.4-19.2,19.2c-8.4,4.8-18,7.2-28.8,7.2
			c-19.2,0-32.4-4.8-42-15.6c-8.4-10.8-13.2-21.6-13.2-33.6v-90L1263.5,816.7L1263.5,816.7z"/>
		<path class="st0" d="M1463.9,816.7h45.6c13.2,0,25.2,3.6,32.4,10.8c8.4,7.2,12,16.8,12,30c0,7.2-2.4,14.4-6,21.6
			c-3.6,7.2-10.8,13.2-20.4,18l38.4,57.6h-33.6l-36-52.8h-3.6v52.8h-28.8L1463.9,816.7L1463.9,816.7z M1493.9,840.7v36h6
			c15.6,0,22.8-6,22.8-19.2c0-4.8-2.4-9.6-6-12c-3.6-3.6-9.6-4.8-16.8-4.8H1493.9z"/>
		<path class="st0" d="M1701.5,816.7h22.8l56.4,138h-30l-10.8-27.6h-52.8l-10.8,27.6h-30L1701.5,816.7z M1713.5,861.1l-16.8,40.8
			h32.4L1713.5,861.1z"/>
		<path class="st0" d="M1957.1,816.7h28.8v138h-28.8l-62.4-88.8v88.8h-30v-138h28.8l63.6,88.8L1957.1,816.7L1957.1,816.7z"/>
		<path class="st0" d="M2181.5,823.9v33.6c-14.4-8.4-27.6-13.2-39.6-13.2c-10.8,0-20.4,3.6-26.4,12c-7.2,7.2-9.6,18-9.6,31.2
			c0,12,3.6,21.6,10.8,30c7.2,7.2,16.8,10.8,28.8,10.8c10.8,0,22.8-3.6,37.2-12v33.6c-15.6,4.8-30,8.4-40.8,8.4
			c-18,0-34.8-7.2-46.8-20.4c-13.2-13.2-19.2-30-19.2-50.4s7.2-37.2,19.2-50.4c12-13.2,28.8-20.4,48-20.4
			C2153.9,814.3,2167.1,817.9,2181.5,823.9z"/>
		<path class="st0" d="M2269.1,816.7h78v27.6h-48v27.6h48v26.4h-48v28.8h48v27.6h-78V816.7z"/>
	</g>
	<g>
		<g>
			<path class="st0" d="M356.3,1143.1h12v80.4h30v12h-42V1143.1z"/>
			<path class="st0" d="M434.3,1143.1h12v92.4h-12V1143.1z"/>
			<path class="st0" d="M489.5,1143.1h51.6v13.2h-38.4v22.8h38.4v12h-38.4v44.4h-13.2L489.5,1143.1L489.5,1143.1z"/>
			<path class="st0" d="M578.3,1143.1h51.6v13.2h-38.4v22.8h38.4v12h-38.4v31.2h38.4v12h-51.6V1143.1z"/>
		</g>
		<g>
			<path class="st0" d="M742.7,1200.7c-3.6,0-7.2-1.2-9.6-3.6c-2.4-2.4-3.6-6-3.6-9.6s1.2-7.2,3.6-9.6c2.4-2.4,6-3.6,9.6-3.6
				c3.6,0,7.2,1.2,9.6,3.6c2.4,2.4,3.6,6,3.6,9.6s-1.2,7.2-3.6,9.6C748.7,1199.5,746.3,1200.7,742.7,1200.7z"/>
		</g>
		<g>
			<path class="st0" d="M853.1,1143.1h13.2v36h44.4v-36h12v92.4h-12v-44.4h-44.4v44.4h-13.2V1143.1z"/>
			<path class="st0" d="M961.1,1188.7c0-13.2,4.8-25.2,15.6-34.8c9.6-9.6,21.6-14.4,36-14.4c13.2,0,25.2,4.8,36,14.4
				c9.6,9.6,14.4,20.4,14.4,33.6c0,14.4-4.8,25.2-14.4,34.8s-21.6,14.4-36,14.4c-14.4,0-26.4-4.8-36-14.4
				C965.9,1213.9,961.1,1201.9,961.1,1188.7z M1049.9,1188.7c0-9.6-3.6-19.2-10.8-25.2c-7.2-7.2-16.8-10.8-27.6-10.8
				c-9.6,0-19.2,3.6-26.4,10.8c-7.2,7.2-10.8,15.6-10.8,25.2c0,9.6,3.6,19.2,10.8,25.2c7.2,7.2,16.8,10.8,27.6,10.8
				c9.6,0,18-3.6,25.2-10.8C1046.3,1206.7,1049.9,1198.3,1049.9,1188.7z"/>
			<path class="st0" d="M1179.5,1138.3l25.2,96h-12l-15.6-58.8l-26.4,62.4l-26.4-62.4l-15.6,58.8h-12l25.2-96l28.8,68.4
				L1179.5,1138.3z"/>
			<path class="st0" d="M1240.7,1143.1h51.6v13.2h-38.4v22.8h38.4v12h-38.4v31.2h38.4v12h-51.6V1143.1z"/>
		</g>
		<g>
			<path class="st0" d="M1403.9,1200.7c-3.6,0-7.2-1.2-9.6-3.6c-2.4-2.4-3.6-6-3.6-9.6s1.2-7.2,3.6-9.6c2.4-2.4,6-3.6,9.6-3.6
				s7.2,1.2,9.6,3.6c2.4,2.4,3.6,6,3.6,9.6s-1.2,7.2-3.6,9.6C1411.1,1199.5,1407.5,1200.7,1403.9,1200.7z"/>
		</g>
		<g>
			<path class="st0" d="M1588.7,1145.5v14.4c-9.6-4.8-19.2-7.2-27.6-7.2c-10.8,0-19.2,3.6-27.6,10.8c-8.4,7.2-10.8,15.6-10.8,25.2
				c0,10.8,3.6,19.2,10.8,25.2c7.2,7.2,16.8,10.8,28.8,10.8c8.4,0,16.8-2.4,26.4-7.2v14.4c-8.4,4.8-18,7.2-27.6,7.2
				c-14.4,0-26.4-4.8-37.2-14.4c-9.6-9.6-15.6-21.6-15.6-34.8s4.8-25.2,14.4-34.8c9.6-9.6,21.6-14.4,36-14.4
				C1569.5,1139.5,1579.1,1141.9,1588.7,1145.5z"/>
			<path class="st0" d="M1661.9,1139.5l43.2,96h-13.2l-10.8-24h-39.6l-10.8,24h-13.2L1661.9,1139.5z M1661.9,1168.3l-14.4,32.4h30
				L1661.9,1168.3z"/>
			<path class="st0" d="M1742.3,1143.1h20.4c9.6,0,18,2.4,24,7.2c6,4.8,9.6,10.8,9.6,19.2c0,6-2.4,12-6,16.8
				c-3.6,4.8-10.8,8.4-19.2,9.6l26.4,39.6h-14.4l-25.2-38.4h-2.4v38.4h-13.2L1742.3,1143.1L1742.3,1143.1z M1755.5,1153.9v32.4
				c18,0,27.6-4.8,27.6-15.6c0-3.6-1.2-7.2-3.6-9.6c-2.4-2.4-4.8-3.6-8.4-4.8C1767.5,1153.9,1762.7,1153.9,1755.5,1153.9z"/>
		</g>
		<g>
			<path class="st0" d="M1912.7,1200.7c-3.6,0-7.2-1.2-9.6-3.6c-2.4-2.4-3.6-6-3.6-9.6s1.2-7.2,3.6-9.6c2.4-2.4,6-3.6,9.6-3.6
				c3.6,0,7.2,1.2,9.6,3.6c2.4,2.4,3.6,6,3.6,9.6s-1.2,7.2-3.6,9.6C1919.9,1199.5,1916.3,1200.7,1912.7,1200.7z"/>
		</g>
		<g>
			<path class="st0" d="M2024.3,1143.1h14.4c9.6,0,18,2.4,24,6c6,3.6,9.6,9.6,9.6,15.6c0,7.2-4.8,14.4-13.2,19.2
				c14.4,4.8,20.4,13.2,20.4,24c0,8.4-3.6,14.4-10.8,19.2c-7.2,4.8-16.8,7.2-28.8,7.2h-15.6L2024.3,1143.1L2024.3,1143.1z
				 M2036.3,1153.9v27.6c7.2,0,12-1.2,15.6-3.6s6-6,6-10.8c0-3.6-1.2-7.2-4.8-9.6c-3.6-2.4-8.4-3.6-13.2-3.6
				C2038.7,1153.9,2037.5,1153.9,2036.3,1153.9z M2036.3,1192.3v31.2h1.2c10.8,0,18-1.2,22.8-4.8c3.6-3.6,6-7.2,6-10.8
				c0-4.8-2.4-8.4-7.2-12s-10.8-4.8-18-4.8h-4.8L2036.3,1192.3L2036.3,1192.3z"/>
			<path class="st0" d="M2116.7,1143.1h13.2v56.4c0,8.4,2.4,14.4,6,19.2c3.6,4.8,9.6,7.2,16.8,7.2s13.2-2.4,16.8-6
				c3.6-4.8,6-9.6,6-18v-58.8h13.2v57.6c0,10.8-3.6,20.4-9.6,27.6c-6,7.2-15.6,9.6-25.2,9.6c-10.8,0-19.2-3.6-26.4-10.8
				c-6-7.2-9.6-16.8-9.6-30v-54H2116.7z"/>
			<path class="st0" d="M2287.1,1152.7l-10.8,8.4c-2.4-2.4-4.8-4.8-7.2-6c-2.4-1.2-4.8-2.4-9.6-2.4c-4.8,0-8.4,1.2-10.8,3.6
				c-2.4,2.4-4.8,4.8-4.8,8.4c0,2.4,1.2,4.8,3.6,7.2c2.4,2.4,7.2,4.8,12,7.2c6,2.4,10.8,4.8,14.4,7.2s6,4.8,8.4,7.2
				c2.4,2.4,3.6,6,4.8,8.4s1.2,6,1.2,9.6c0,7.2-2.4,14.4-8.4,19.2c-6,6-12,8.4-20.4,8.4c-7.2,0-14.4-2.4-20.4-6
				c-6-4.8-10.8-10.8-13.2-19.2l13.2-3.6c4.8,10.8,12,15.6,21.6,15.6c4.8,0,8.4-1.2,12-3.6c3.6-2.4,4.8-6,4.8-10.8
				c0-2.4-1.2-4.8-2.4-7.2s-3.6-4.8-6-6c-2.4-1.2-6-3.6-10.8-6s-9.6-3.6-12-6c-2.4-1.2-4.8-3.6-7.2-6c-2.4-2.4-3.6-4.8-4.8-7.2
				c-1.2-2.4-1.2-4.8-1.2-7.2c0-7.2,2.4-12,8.4-16.8c4.8-4.8,12-7.2,19.2-7.2c4.8,0,9.6,1.2,15.6,3.6S2283.5,1147.9,2287.1,1152.7z"
				/>
			<path class="st0" d="M2327.9,1143.1h12v92.4h-12V1143.1z"/>
			<path class="st0" d="M2384.3,1138.3l68.4,69.6v-66h13.2v97.2l-68.4-69.6v66h-13.2V1138.3z"/>
			<path class="st0" d="M2506.7,1143.1h51.6v13.2h-38.4v22.8h38.4v12h-38.4v31.2h38.4v12h-51.6V1143.1z"/>
			<path class="st0" d="M2651.9,1152.7l-10.8,8.4c-2.4-2.4-4.8-4.8-7.2-6c-2.4-1.2-4.8-2.4-9.6-2.4c-4.8,0-8.4,1.2-10.8,3.6
				c-2.4,2.4-4.8,4.8-4.8,8.4c0,2.4,1.2,4.8,3.6,7.2c2.4,2.4,7.2,4.8,12,7.2c6,2.4,10.8,4.8,14.4,7.2c3.6,2.4,6,4.8,8.4,7.2
				c2.4,2.4,3.6,6,4.8,8.4s1.2,6,1.2,9.6c0,7.2-2.4,14.4-8.4,19.2c-6,6-12,8.4-20.4,8.4c-7.2,0-14.4-2.4-20.4-6
				c-6-4.8-10.8-10.8-13.2-19.2l13.2-3.6c4.8,10.8,12,15.6,21.6,15.6c4.8,0,8.4-1.2,12-3.6c3.6-2.4,4.8-6,4.8-10.8
				c0-2.4-1.2-4.8-2.4-7.2s-3.6-4.8-6-6c-2.4-1.2-6-3.6-10.8-6s-9.6-3.6-12-6c-2.4-1.2-4.8-3.6-7.2-6s-3.6-4.8-4.8-7.2
				c-1.2-2.4-1.2-4.8-1.2-7.2c0-7.2,2.4-12,8.4-16.8c4.8-4.8,12-7.2,19.2-7.2c4.8,0,9.6,1.2,15.6,3.6
				C2644.7,1145.5,2649.5,1147.9,2651.9,1152.7z"/>
			<path class="st0" d="M2750.3,1152.7l-10.8,8.4c-2.4-2.4-4.8-4.8-7.2-6c-2.4-1.2-4.8-2.4-9.6-2.4s-8.4,1.2-10.8,3.6
				s-4.8,4.8-4.8,8.4c0,2.4,1.2,4.8,3.6,7.2c2.4,2.4,7.2,4.8,12,7.2c6,2.4,10.8,4.8,14.4,7.2c3.6,2.4,6,4.8,8.4,7.2
				c2.4,2.4,3.6,6,4.8,8.4c1.2,2.4,1.2,6,1.2,9.6c0,7.2-2.4,14.4-8.4,19.2c-6,6-12,8.4-20.4,8.4c-7.2,0-14.4-2.4-20.4-6
				c-6-4.8-10.8-10.8-13.2-19.2l13.2-3.6c4.8,10.8,12,15.6,21.6,15.6c4.8,0,8.4-1.2,12-3.6s4.8-6,4.8-10.8c0-2.4-1.2-4.8-2.4-7.2
				c-1.2-2.4-3.6-4.8-6-6c-2.4-1.2-6-3.6-10.8-6c-4.8-2.4-9.6-3.6-12-6c-2.4-1.2-4.8-3.6-7.2-6s-3.6-4.8-4.8-7.2
				c-1.2-2.4-1.2-4.8-1.2-7.2c0-7.2,2.4-12,8.4-16.8c4.8-4.8,12-7.2,19.2-7.2c4.8,0,9.6,1.2,15.6,3.6
				C2743.1,1145.5,2746.7,1147.9,2750.3,1152.7z"/>
		</g>
	</g>
</g>
</svg>
