<?xml version="1.0" encoding="utf-8"?>
<!-- Generator: Adobe Illustrator 16.0.0, SVG Export Plug-In . SVG Version: 6.00 Build 0)  -->
<!DOCTYPE svg PUBLIC "-//W3C//DTD SVG 1.1//EN" "http://www.w3.org/Graphics/SVG/1.1/DTD/svg11.dtd">
<svg version="1.1" id="Layer_1" xmlns="http://www.w3.org/2000/svg" xmlns:xlink="http://www.w3.org/1999/xlink" x="0px" y="0px"
	  viewBox="0 0 3000 3000" enable-background="new 0 0 3000 3000" xml:space="preserve">
<g>
	<g>
		<path fill="#084477" d="M1726.688,1118.4c-49.2-43.2-133.2-30-184.8-4.8c-73.2,40.8-129.6,116.4-135.6,198
			c-3.601,39.6,7.199,76.8,39.6,100.8c66,40.8,152.4,12,208.8-26.399c49.2-38.4,82.8-88.801,99.601-144
			C1766.288,1201.2,1760.288,1150.8,1726.688,1118.4z M1515.487,1411.2c-70.8,0,75.601-292.8,133.2-292.8
			C1705.088,1118.4,1586.288,1411.2,1515.487,1411.2z"/>
	</g>
	<polygon fill="#084477" points="1352.288,1370.4 1225.088,1369.2 1247.888,1304.4 1376.288,1304.4 	"/>
	<path fill="#084477" d="M500.288,1399.2l-10.801,25.2H302.288l4.8-28.8c0,0,37.2,2.4,43.2-19.2l37.199-84h-70.8
		c-30,27.601-55.199,50.4-96,88.8c-38.399,36-87.6,58.801-144,40.801c-40.8-15.601-69.6-42-76.8-84c0-2.4,0-6,0-9.601
		c0-20.399,9.601-62.399,56.4-62.399c39.6,0,51.6,37.199,51.6,49.199c0,28.801-19.2,45.601-42,46.801
		c19.2,26.399,49.2,24,75.601,14.399c62.399-27.6,338.399-315.6,338.399-315.6h129.6c0,0-138,320.399-140.399,324
		C467.888,1389.6,469.088,1396.8,500.288,1399.2z M449.888,1150.8l-90,100.8h45.6L449.888,1150.8L449.888,1150.8z"/>
	<path fill="#084477" d="M1125.487,1201.2c153.601,0,94.801,222-72,222C914.288,1423.2,964.688,1201.2,1125.487,1201.2z
		 M1048.688,1402.8c44.4,0,117.601-182.4,82.8-182.4C1095.487,1220.4,1004.288,1402.8,1048.688,1402.8z"/>
	<path fill="#084477" d="M827.888,1209.6c-45.6,111.6-70.8,162-64.8,166.8s36-34.8,43.2-30c8.399,4.8-30,82.8-84,82.8
		c-52.801,0-48-50.399-48-50.399c-20.4,16.8-50.4,48-93.601,48c-31.2,0-74.399-26.4,1.2-158.4c12-22.8-26.4,12-30,6
		c-7.2-13.2,31.2-69.6,98.4-69.6c82.8,0-51.601,170.399-21.601,170.399c20.4,0,50.4-19.199,120-164.399c3.601-6,4.8-4.8,8.4-4.8
		c25.2,0,63.6,0,63.6,0C824.288,1204.8,829.088,1204.8,827.888,1209.6z"/>
	<path fill="#084477" d="M862.688,1233.6c9.601,0,10.8,6,3.601,20.4c-15.601,33.6-27.601,60-37.2,80.399c-22.8,48-12,92.4,27.6,92.4
		c64.8,0,102-67.2,99.601-74.4c-4.801-18-33.601,27.601-49.2,20.4c-12-6,4.8-33.601,50.399-132c1.2-2.4,6-7.2,13.2-7.2
		c9.601,0,18,0,28.8,0c3.601,0,7.2-2.4,10.801-12c3.6-10.8,4.8-15.6,0-15.6h-24c-4.801,0-9.601-3.601-7.2-12l24-52.801h-79.2
		l-32.4,57.601c-3.6,4.8-6,7.2-14.399,7.2h-19.2c-6,0-8.399,6-10.8,12c-3.6,7.199-3.6,15.6,1.2,15.6H862.688z"/>
	<path fill="#084477" d="M2971.088,1279.2c-15.601,3.601-33.601,0-37.2-18l3.6-30c-13.199-7.199-27.6,6-30,18
		c-1.199,45.601,82.801,57.601,51.601,111.601c-24,49.2-76.8,68.399-128.4,63.6c-18,0-38.399-10.8-44.399-27.6
		c-4.801-21.601,7.199-33.601,22.8-44.4c16.8-4.8,34.8,1.2,43.2,16.8c9.6,13.2-10.801,28.801,3.6,37.2
		c16.8,3.601,28.8-15.6,32.4-28.8c-9.601-45.6-94.801-67.2-56.4-124.8c34.8-40.8,96-51.601,147.6-38.4
		C3013.088,1226.4,3002.288,1278,2971.088,1279.2L2971.088,1279.2z"/>
	<path fill="#084477" d="M2078.288,1424.4h75.6c60-123.6,105.6-169.2,127.2-169.2c31.2,0-124.8,174-14.4,174
		c62.4,0,97.2-64.8,94.8-72c-4.8-16.8-31.199,26.4-46.8,19.2c-12-6,58.8-87.6,58.8-122.399c0-20.4-10.8-46.801-48-46.801
		c-32.399,0-68.399,30-87.6,45.601c4.8-36-8.4-46.8-30-46.8c-56.4,0-106.8,61.199-99.6,78c4.8,10.8,21.6-15.601,30-15.601
		C2149.088,1269.6,2093.888,1383.6,2078.288,1424.4z"/>
	<path fill="#084477" d="M2743.088,1266c-15.601,3.6-33.601,27.6-97.2,159.6h-75.6c18-42,78-160.8,66-160.8
		c-8.4,0-20.4,12-27.601,3.6c-6-7.2,50.4-62.399,86.4-62.399c24,0,30,12,25.2,48c15.6-26.4,43.199-50.4,69.6-50.4
		c20.4,0,28.8,13.2,28.8,31.2C2817.487,1268.4,2769.487,1310.4,2743.088,1266z"/>
	<path fill="#084477" d="M2461.088,1334.4c0,0-34.8,55.2,9.6,55.2c48,0,82.8-63.6,82.8-37.2c0,14.4-44.399,73.2-114,73.2
		c-44.399,0-72-21.6-72-62.4c0-66,86.4-160.8,170.4-160.8c33.6,0,60,14.4,60,44.4C2599.088,1276.8,2563.088,1314,2461.088,1334.4z
		 M2531.888,1231.2c-24,0-66,69.601-46.8,69.601C2515.088,1300.8,2557.088,1231.2,2531.888,1231.2z"/>
	<path fill="#084477" d="M1863.487,1208.4c-69.6,0-111.6,49.2-103.199,69.601c3.6,9.6,28.8-26.4,32.399-15.601
		c2.4,8.4-99.6,146.4-1.2,162c32.4,4.8,58.801-25.2,93.601-50.399c-1.2,28.8,24,51.6,52.8,51.6c43.2,0,130.8-66,165.6-175.2
		c4.801-22.8-8.399-42-25.199-42c-39.601,0-66,50.4-28.801,80.4c-30,67.2-56.399,94.8-78,94.8c-20.399,0,36-140.4,50.4-170.4
		l-74.4,1.2c-48,92.4-80.399,157.2-114,157.2c-16.8,0,34.801-76.8,48-103.2C1895.888,1237.2,1897.088,1208.4,1863.487,1208.4z"/>
	<g>
		<path fill="#084477" d="M761.888,1516.801h30v138h-30V1516.801z"/>
		<path fill="#084477" d="M975.487,1516.801h28.801v138h-28.801l-63.6-90v88.799h-30v-136.799h30l63.6,88.799V1516.801z"/>
		<path fill="#084477" d="M1173.487,1528.801l-18,20.398c-9.6-6-16.8-8.398-20.399-8.398c-3.601,0-6,1.199-8.4,3.6
			c-2.399,2.4-3.6,6-3.6,8.4c0,7.199,6,13.199,18,18c9.6,3.6,15.6,7.199,20.399,10.799c4.801,3.6,8.4,7.201,12,13.201
			c3.601,6,4.801,12,4.801,18c0,12-4.801,21.6-14.4,31.199c-9.6,8.4-20.4,13.199-33.6,13.199c-14.4,0-28.801-7.199-42-20.398
			l19.199-22.801c8.4,9.6,16.801,13.199,24,13.199c3.601,0,7.2-1.199,10.801-4.799c3.6-3.6,4.8-6,4.8-9.6
			c0-7.201-7.2-13.201-22.8-19.201c-8.4-3.6-14.4-6-18-8.4c-3.601-2.398-7.2-7.199-9.601-12c-2.399-4.799-3.6-10.799-3.6-16.799
			c0-12,3.6-21.6,12-30c8.399-7.201,18-12,31.2-12C1150.688,1514.4,1163.888,1519.199,1173.487,1528.801z"/>
		<path fill="#084477" d="M1263.487,1516.801h28.801v84c0,8.398,2.399,14.398,6,19.199c4.8,4.801,9.6,7.199,16.8,7.199
			c8.399,0,14.399-2.398,19.2-7.199c4.8-4.801,7.199-12,7.199-20.4v-82.799h28.801v88.799c0,8.4-2.4,15.6-6,24
			c-3.601,8.4-10.801,14.4-19.2,19.201c-8.4,4.799-18,7.199-28.8,7.199c-19.2,0-32.4-4.801-42-15.6c-8.4-10.801-13.2-21.6-13.2-33.6
			v-90H1263.487z"/>
		<path fill="#084477" d="M1463.888,1516.801h45.6c13.2,0,25.2,3.6,32.4,10.799c8.4,7.201,12,16.801,12,30c0,7.201-2.4,14.4-6,21.6
			c-3.6,7.201-10.8,13.201-20.4,18l38.4,57.602h-33.6l-36-52.801h-3.601v52.801h-28.8V1516.801z M1493.888,1540.801v36h6
			c15.6,0,22.8-6,22.8-19.201c0-4.799-2.399-9.6-6-12c-3.6-3.6-9.6-4.799-16.8-4.799H1493.888z"/>
		<path fill="#084477" d="M1701.487,1516.801h22.801l56.399,138h-30l-10.8-27.602h-52.8l-10.8,27.602h-30L1701.487,1516.801z
			 M1713.487,1561.199l-16.8,40.801h32.4L1713.487,1561.199z"/>
		<path fill="#084477" d="M1957.088,1516.801h28.8v138h-28.8l-62.4-88.801v88.801h-30v-138h28.8l63.601,88.799V1516.801z"/>
		<path fill="#084477" d="M2181.487,1524v33.6c-14.399-8.4-27.6-13.199-39.6-13.199c-10.8,0-20.4,3.6-26.4,12
			c-7.199,7.199-9.6,18-9.6,31.199c0,12,3.6,21.6,10.8,30c7.2,7.201,16.8,10.801,28.8,10.801c10.801,0,22.801-3.6,37.2-12v33.6
			c-15.6,4.801-30,8.4-40.8,8.4c-18,0-34.8-7.201-46.8-20.4c-13.2-13.199-19.2-30-19.2-50.4s7.2-37.199,19.2-50.4
			c12-13.199,28.8-20.398,48-20.398C2153.888,1514.4,2167.088,1518,2181.487,1524z"/>
		<path fill="#084477" d="M2269.088,1516.801h78v27.6h-48v27.6h48v26.4h-48v28.799h48v27.602h-78V1516.801z"/>
	</g>
	<g>
		<g>
			<path fill="#084477" d="M356.288,1843.199h12v80.4h30v12h-42V1843.199z"/>
			<path fill="#084477" d="M434.288,1843.199h12v92.4h-12V1843.199z"/>
			<path fill="#084477" d="M489.487,1843.199h51.601v13.201h-38.4v22.799h38.4v12h-38.4v44.4h-13.2V1843.199z"/>
			<path fill="#084477" d="M578.288,1843.199h51.6v13.201h-38.4v22.799h38.4v12h-38.4v31.201h38.4v12h-51.6V1843.199z"/>
		</g>
		<g>
			<path fill="#084477" d="M742.688,1900.801c-3.6,0-7.2-1.201-9.6-3.602c-2.4-2.398-3.601-6-3.601-9.6s1.2-7.199,3.601-9.6
				c2.399-2.4,6-3.6,9.6-3.6c3.601,0,7.2,1.199,9.601,3.6c2.399,2.4,3.6,6,3.6,9.6s-1.2,7.201-3.6,9.6
				C748.688,1899.6,746.288,1900.801,742.688,1900.801z"/>
		</g>
		<g>
			<path fill="#084477" d="M853.088,1843.199h13.2v36h44.399v-36h12v92.4h-12v-44.4h-44.399v44.4h-13.2V1843.199z"/>
			<path fill="#084477" d="M961.088,1888.801c0-13.201,4.8-25.201,15.6-34.801c9.601-9.6,21.601-14.4,36-14.4
				c13.2,0,25.2,4.801,36,14.4c9.601,9.6,14.4,20.4,14.4,33.6c0,14.4-4.8,25.201-14.4,34.801c-9.6,9.6-21.6,14.4-36,14.4
				c-14.399,0-26.399-4.801-36-14.4C965.888,1914,961.088,1902,961.088,1888.801z M1049.888,1888.801
				c0-9.602-3.6-19.201-10.8-25.201c-7.2-7.199-16.8-10.799-27.601-10.799c-9.6,0-19.199,3.6-26.399,10.799
				c-7.2,7.201-10.8,15.6-10.8,25.201c0,9.6,3.6,19.199,10.8,25.199c7.2,7.199,16.8,10.801,27.6,10.801
				c9.601,0,18-3.602,25.2-10.801C1046.288,1906.801,1049.888,1898.4,1049.888,1888.801z"/>
			<path fill="#084477" d="M1179.487,1838.4l25.2,96h-12l-15.6-58.801l-26.4,62.4l-26.399-62.4l-15.601,58.801h-12l25.2-96
				l28.8,68.4L1179.487,1838.4z"/>
			<path fill="#084477" d="M1240.688,1843.199h51.601v13.201h-38.4v22.799h38.4v12h-38.4v31.201h38.4v12h-51.601V1843.199z"/>
		</g>
		<g>
			<path fill="#084477" d="M1403.888,1900.801c-3.6,0-7.2-1.201-9.6-3.602c-2.4-2.398-3.601-6-3.601-9.6s1.2-7.199,3.601-9.6
				c2.399-2.4,6-3.6,9.6-3.6s7.2,1.199,9.6,3.6c2.4,2.4,3.601,6,3.601,9.6s-1.2,7.201-3.601,9.6
				C1411.088,1899.6,1407.487,1900.801,1403.888,1900.801z"/>
		</g>
		<g>
			<path fill="#084477" d="M1588.688,1845.6v14.4c-9.6-4.801-19.2-7.199-27.6-7.199c-10.8,0-19.2,3.6-27.601,10.799
				c-8.399,7.201-10.8,15.6-10.8,25.201c0,10.799,3.601,19.199,10.8,25.199c7.2,7.199,16.801,10.801,28.801,10.801
				c8.399,0,16.799-2.4,26.399-7.201v14.4c-8.399,4.801-18,7.199-27.601,7.199c-14.399,0-26.399-4.799-37.199-14.398
				c-9.601-9.602-15.601-21.602-15.601-34.801s4.8-25.199,14.4-34.801c9.6-9.6,21.6-14.398,36-14.398
				C1569.487,1839.6,1579.088,1842,1588.688,1845.6z"/>
			<path fill="#084477" d="M1661.888,1839.6l43.2,96h-13.2l-10.8-24h-39.601l-10.8,24h-13.2L1661.888,1839.6z M1661.888,1868.4
				l-14.4,32.4h30L1661.888,1868.4z"/>
			<path fill="#084477" d="M1742.288,1843.199h20.399c9.601,0,18,2.4,24,7.201c6,4.799,9.601,10.799,9.601,19.199
				c0,6-2.4,12-6,16.801c-3.601,4.799-10.801,8.4-19.2,9.6l26.399,39.6h-14.399l-25.2-38.398h-2.4v38.398h-13.199V1843.199z
				 M1755.487,1854v32.4c18,0,27.601-4.801,27.601-15.6c0-3.602-1.2-7.201-3.601-9.602c-2.399-2.398-4.8-3.6-8.399-4.799
				C1767.487,1854,1762.688,1854,1755.487,1854z"/>
		</g>
		<g>
			<path fill="#084477" d="M1912.688,1900.801c-3.6,0-7.2-1.201-9.6-3.602c-2.4-2.398-3.601-6-3.601-9.6s1.2-7.199,3.601-9.6
				c2.399-2.4,6-3.6,9.6-3.6c3.601,0,7.2,1.199,9.601,3.6c2.399,2.4,3.6,6,3.6,9.6s-1.2,7.201-3.6,9.6
				C1919.888,1899.6,1916.288,1900.801,1912.688,1900.801z"/>
		</g>
		<g>
			<path fill="#084477" d="M2024.288,1843.199h14.399c9.601,0,18,2.4,24,6c6,3.602,9.601,9.602,9.601,15.602
				c0,7.199-4.801,14.398-13.2,19.199c14.399,4.801,20.399,13.199,20.399,24c0,8.4-3.6,14.4-10.8,19.199
				c-7.2,4.801-16.8,7.201-28.8,7.201h-15.6V1843.199z M2036.288,1854v27.6c7.199,0,12-1.199,15.6-3.6s6-6,6-10.801
				c0-3.6-1.2-7.199-4.8-9.6c-3.601-2.4-8.4-3.6-13.2-3.6C2038.688,1854,2037.487,1854,2036.288,1854z M2036.288,1892.4v31.199
				h1.199c10.801,0,18-1.199,22.801-4.799c3.6-3.602,6-7.201,6-10.801c0-4.801-2.4-8.4-7.2-12s-10.8-4.801-18-4.801h-4.8V1892.4z"/>
			<path fill="#084477" d="M2116.688,1843.199h13.2v56.4c0,8.4,2.4,14.4,6,19.201c3.6,4.799,9.6,7.199,16.8,7.199s13.2-2.4,16.8-6
				c3.601-4.801,6-9.6,6-18v-58.801h13.2v57.602c0,10.799-3.6,20.398-9.6,27.6c-6,7.199-15.601,9.6-25.2,9.6
				c-10.8,0-19.2-3.6-26.4-10.801c-6-7.199-9.6-16.799-9.6-30v-54H2116.688z"/>
			<path fill="#084477" d="M2287.088,1852.801l-10.8,8.398c-2.4-2.398-4.801-4.799-7.2-6c-2.4-1.199-4.8-2.398-9.601-2.398
				c-4.8,0-8.399,1.199-10.8,3.6c-2.399,2.4-4.8,4.799-4.8,8.4c0,2.398,1.2,4.799,3.6,7.199c2.4,2.4,7.201,4.801,12,7.199
				c6,2.4,10.801,4.801,14.4,7.201s6,4.799,8.4,7.199c2.399,2.4,3.6,6,4.8,8.4s1.2,6,1.2,9.6c0,7.201-2.4,14.4-8.4,19.201
				c-6,6-12,8.398-20.4,8.398c-7.199,0-14.399-2.398-20.399-6c-6-4.799-10.8-10.799-13.2-19.199l13.2-3.6
				c4.8,10.799,12,15.6,21.601,15.6c4.799,0,8.399-1.199,12-3.6c3.6-2.4,4.799-6,4.799-10.801c0-2.4-1.199-4.799-2.399-7.199
				s-3.601-4.801-6-6c-2.399-1.201-6-3.6-10.8-6s-9.6-3.6-12-6c-2.4-1.201-4.8-3.6-7.2-6c-2.399-2.4-3.601-4.801-4.8-7.201
				c-1.2-2.398-1.2-4.799-1.2-7.199c0-7.199,2.399-12,8.399-16.801c4.801-4.799,12-7.199,19.201-7.199c4.799,0,9.6,1.199,15.6,3.6
				S2283.487,1848,2287.088,1852.801z"/>
			<path fill="#084477" d="M2327.888,1843.199h12v92.4h-12V1843.199z"/>
			<path fill="#084477" d="M2384.288,1838.4l68.399,69.6v-66h13.2v97.199l-68.4-69.6v66h-13.199V1838.4z"/>
			<path fill="#084477" d="M2506.688,1843.199h51.601v13.201h-38.4v22.799h38.4v12h-38.4v31.201h38.4v12h-51.601V1843.199z"/>
			<path fill="#084477" d="M2651.888,1852.801l-10.8,8.398c-2.4-2.398-4.8-4.799-7.2-6c-2.4-1.199-4.8-2.398-9.6-2.398
				c-4.801,0-8.4,1.199-10.801,3.6c-2.399,2.4-4.8,4.799-4.8,8.4c0,2.398,1.2,4.799,3.601,7.199c2.399,2.4,7.199,4.801,12,7.199
				c6,2.4,10.8,4.801,14.399,7.201c3.601,2.4,6,4.799,8.4,7.199c2.399,2.4,3.6,6,4.8,8.4s1.2,6,1.2,9.6c0,7.201-2.4,14.4-8.4,19.201
				c-6,6-12,8.398-20.399,8.398c-7.2,0-14.4-2.398-20.4-6c-6-4.799-10.8-10.799-13.2-19.199l13.2-3.6c4.8,10.799,12,15.6,21.6,15.6
				c4.801,0,8.4-1.199,12-3.6c3.601-2.4,4.801-6,4.801-10.801c0-2.4-1.2-4.799-2.4-7.199s-3.6-4.801-6-6c-2.4-1.201-6-3.6-10.8-6
				s-9.601-3.6-12-6c-2.399-1.201-4.8-3.6-7.2-6s-3.6-4.801-4.8-7.201c-1.2-2.398-1.2-4.799-1.2-7.199c0-7.199,2.4-12,8.4-16.801
				c4.8-4.799,12-7.199,19.199-7.199c4.801,0,9.601,1.199,15.601,3.6C2644.688,1845.6,2649.487,1848,2651.888,1852.801z"/>
			<path fill="#084477" d="M2750.288,1852.801l-10.801,8.398c-2.399-2.398-4.8-4.799-7.199-6c-2.4-1.199-4.801-2.398-9.601-2.398
				s-8.399,1.199-10.8,3.6s-4.8,4.799-4.8,8.4c0,2.398,1.2,4.799,3.6,7.199c2.4,2.4,7.2,4.801,12,7.199c6,2.4,10.8,4.801,14.4,7.201
				c3.6,2.4,6,4.799,8.399,7.199c2.4,2.4,3.601,6,4.801,8.4c1.199,2.4,1.199,6,1.199,9.6c0,7.201-2.399,14.4-8.399,19.201
				c-6,6-12,8.398-20.4,8.398c-7.2,0-14.399-2.398-20.399-6c-6-4.799-10.801-10.799-13.2-19.199l13.2-3.6
				c4.8,10.799,12,15.6,21.6,15.6c4.8,0,8.4-1.199,12-3.6s4.8-6,4.8-10.801c0-2.4-1.2-4.799-2.399-7.199c-1.2-2.4-3.601-4.801-6-6
				c-2.4-1.201-6-3.6-10.801-6c-4.799-2.4-9.6-3.6-12-6c-2.399-1.201-4.799-3.6-7.199-6s-3.601-4.801-4.801-7.201
				c-1.199-2.398-1.199-4.799-1.199-7.199c0-7.199,2.399-12,8.399-16.801c4.8-4.799,12-7.199,19.2-7.199c4.8,0,9.6,1.199,15.6,3.6
				C2743.088,1845.6,2746.688,1848,2750.288,1852.801z"/>
		</g>
	</g>
</g>
</svg>
