<?xml version="1.0" encoding="UTF-8"?>
<svg width="396px" height="84px" viewBox="0 0 396 84" version="1.1" xmlns="http://www.w3.org/2000/svg" xmlns:xlink="http://www.w3.org/1999/xlink">
    <!-- Generator: Sketch 51.1 (57501) - http://www.bohemiancoding.com/sketch -->
    <title>COG-Logo</title>
    <desc>Created with Sketch.</desc>
    <defs></defs>
    <g id="Symbols" stroke="none" stroke-width="1" fill="none" fill-rule="evenodd">
        <g id="Branding/Logo/--Corporate/COG-Logo,-Blue" fill="#0033A1" fill-rule="nonzero">
            <path d="M227.289288,51.5240727 L250.834737,28.5936 L227.64483,28.5936 L227.64483,17.7957818 L267.309195,17.7957818 L267.309195,28.7707636 L243.760681,51.6126545 L267.756687,51.6126545 L267.756687,62.4104727 L227.298483,62.4104727 L227.289288,51.5240727 Z M210.560433,3.12174545 L222.826625,3.12174545 L222.826625,14.2219636 L210.560433,14.2219636 L210.560433,3.12174545 Z M210.394923,17.9301818 L222.661115,17.9301818 L222.661115,62.5448727 L210.394923,62.5448727 L210.394923,17.9301818 Z M62.0359133,40.1031273 C62.084959,27.3510905 72.4890513,17.0485393 85.2848504,17.0810935 C98.0806494,17.1136477 108.431824,27.4690031 108.415538,40.2211233 C108.399253,52.9732434 98.0216612,63.3023063 85.2258204,63.3024 C79.0572745,63.3114369 73.1400643,60.867291 68.7865902,56.5120587 C64.4331161,52.1568263 62.0032472,46.2505221 62.0359133,40.1031273 Z M96.5050774,40.1031273 C96.5050774,33.768 91.4907121,28.4958545 85.2258204,28.4958545 C78.8689783,28.4958545 74.0323839,33.7618909 74.0323839,40.1031273 C74.0323839,46.4443636 78.8689783,51.7104 85.2258204,51.7104 C91.4907121,51.7012364 96.5081424,46.4382545 96.5081424,40.1031273 L96.5050774,40.1031273 Z M163.769907,17.7957818 L175.950279,17.7957818 L175.950279,22.7930182 C178.813003,19.1275636 183.19904,16.9038545 188.302291,16.9038545 C198.870464,16.9038545 205.227307,23.6849455 205.227307,35.1944727 L205.227307,62.4104727 L192.780279,62.4104727 L192.780279,36.8011636 C192.780279,30.8234182 190.003375,27.3320727 184.544582,27.3320727 C179.888824,27.3320727 176.039164,30.5424 176.039164,38.0229818 L176.039164,62.3829818 L163.779102,62.3829818 L163.769907,17.7957818 Z M268.455511,40.1031273 C268.455511,24.3080727 280.10257,16.8885818 290.217121,16.8885818 C296.04065,16.8885818 300.604458,19.0267636 303.556068,22.1546182 L303.556068,17.7957818 L315.81613,17.7957818 L315.81613,62.4104727 L303.556068,62.4104727 L303.556068,57.4132364 C300.604458,60.8923636 295.856749,63.3024 290.03935,63.3024 C280.546997,63.3024 268.455511,55.8187636 268.455511,40.1031273 Z M303.908545,40.0145455 C303.908545,33.4106182 299.075015,28.056 292.448452,28.056 C285.644118,28.056 280.451981,33.1418182 280.451981,40.0145455 C280.451981,46.8872727 285.644118,52.0586182 292.448452,52.0586182 C299.081146,52.0586182 303.914675,46.6154182 303.914675,40.0145455 L303.908545,40.0145455 Z M320.775325,17.7957818 L332.952632,17.7957818 L332.952632,22.7930182 C335.818421,19.1275636 340.204458,16.9038545 345.307709,16.9038545 C355.872817,16.9038545 362.229659,23.6849455 362.229659,35.1944727 L362.229659,62.4104727 L349.782632,62.4104727 L349.782632,36.8011636 C349.782632,30.8234182 347.024118,27.3320727 341.546935,27.3320727 C336.891176,27.3320727 333.041517,30.5424 333.041517,38.0229818 L333.041517,62.3829818 L320.781455,62.3829818 L320.775325,17.7957818 Z M227.289288,62.4104727 L227.289288,51.5240727 L250.834737,28.5936 L227.64483,28.5936 L227.64483,17.7957818 L267.309195,17.7957818 L267.309195,28.7707636 L243.760681,51.6126545 M48.9513622,39.7152 L48.7827864,40.0695273 C45.3959443,47.1835636 39.1678328,51.2644364 31.6953251,51.2644364 C20.8604954,51.2644364 12.3857276,42.7300364 12.3857276,31.8375273 C12.3857276,20.6670545 20.8022601,12.2456727 31.9650464,12.2456727 C39.198483,12.2456727 44.6940557,15.6209455 48.3015789,22.2829091 L48.4946749,22.6372364 L59.4122601,15.6820364 L59.2283591,15.3765818 C53.5580805,5.75170909 43.363839,0.00610909091 31.9650464,0.00610909091 C13.7496594,0.00610909091 0.0153250774,13.6935273 0.0153250774,31.8436364 C0.0153250774,50.2930909 13.4523529,63.6842182 31.9650464,63.6842182 C43.8971517,63.6842182 54.4377399,57.0833455 60.1631889,46.0289455 L60.3348297,45.696 L48.9513622,39.7152 Z M111.505263,40.1031273 C111.505263,24.3080727 123.152322,16.8885818 133.266873,16.8885818 C139.090402,16.8885818 143.651146,19.2986182 146.60582,22.5975273 L146.60582,17.7957818 L158.865882,17.7957818 L158.865882,61.1703273 C158.865882,73.752 150.896842,83.9236364 135.764861,83.9236364 C124.393653,83.9236364 116.069071,78.0314182 112.470743,71.0731636 L123.305573,65.0068364 C125.63192,69.6466909 129.742105,72.5912727 135.749536,72.5912727 C142.376099,72.5912727 146.5813,67.4168727 146.5813,61.6162909 L146.5813,57.4132364 C143.626625,60.8923636 138.881981,63.3024 133.064582,63.3024 C123.590619,63.3024 111.505263,55.8187636 111.505263,40.1031273 Z M146.958297,40.0145455 C146.958297,33.4106182 142.124768,28.056 135.498204,28.056 C128.69387,28.056 123.501734,33.1418182 123.501734,40.0145455 C123.501734,46.8872727 128.69387,52.0586182 135.498204,52.0586182 C142.124768,52.0586182 146.958297,46.6154182 146.958297,40.0145455 Z M392.438452,28.7707636 L392.438452,17.7957818 L384.02192,17.7957818 L384.02192,3.07898182 L371.761858,3.07898182 L371.761858,17.7957818 L364.145294,17.7957818 L364.145294,28.7707636 L371.746533,28.7707636 L371.746533,43.0477091 C371.746533,57.5934545 376.402291,62.4104727 390.639288,62.4104727 L392.429257,62.4104727 L392.429257,50.9895273 C384.907709,50.9895273 384.012724,49.9173818 384.012724,42.9591273 L384.012724,28.7707636 L392.438452,28.7707636 Z M395.04065,8.40305455 C394.454325,8.991384 393.656681,9.32224301 392.824644,9.32224301 C391.992607,9.32224301 391.194963,8.991384 390.608638,8.40305455 C390.010088,7.82196569 389.677595,7.02118594 389.689133,6.18850909 C389.692034,4.77725615 390.645523,3.54381839 392.014023,3.18102054 C393.382524,2.81822268 394.824944,3.41649032 395.531073,4.63977521 C396.237202,5.86306009 396.03104,7.40646441 395.02839,8.40305455 L395.04065,8.40305455 Z M390.921269,4.29469091 C390.408102,4.79312874 390.124188,5.48059315 390.136625,6.19461818 C390.124972,6.91088234 390.405986,7.60109556 390.915139,8.10676364 C391.419293,8.61339827 392.105609,8.89837861 392.821579,8.89837861 C393.537549,8.89837861 394.223864,8.61339827 394.728019,8.10676364 C395.241237,7.60333021 395.524849,6.91217996 395.512663,6.19461818 C395.521668,5.10475434 394.866473,4.11835785 393.856246,3.70088154 C392.84602,3.28340522 391.682666,3.51828627 390.915139,4.29469091 L390.921269,4.29469091 Z M392.760279,4.4688 C393.077759,4.45249689 393.395566,4.49389842 393.698173,4.59098182 C394.04932,4.73027259 394.266437,5.08343739 394.231486,5.45847273 C394.24987,5.72779522 394.12247,5.98638482 393.897399,6.13658182 C393.744721,6.22432117 393.575834,6.28042468 393.400867,6.30152727 C393.636064,6.32497828 393.850097,6.44718198 393.98935,6.63752727 C394.105507,6.78989763 394.170886,6.97468424 394.176316,7.16596364 L394.176316,7.41949091 C394.176316,7.49585455 394.176316,7.58138182 394.176316,7.67301818 C394.17702,7.73307872 394.186309,7.79273279 394.203901,7.85018182 L394.225356,7.89294545 L393.658328,7.89294545 C393.656885,7.88179164 393.656885,7.87049927 393.658328,7.85934545 L393.658328,7.82269091 L393.658328,7.71272727 L393.658328,7.44087273 C393.699829,7.13998052 393.575719,6.84010015 393.333437,6.65585455 C393.120539,6.56663657 392.889461,6.52895299 392.659133,6.54589091 L392.180991,6.54589091 L392.180991,7.89294545 L391.567988,7.89294545 L391.567988,4.4688 L392.760279,4.4688 Z M393.413127,5.0064 C393.182637,4.90645193 392.931326,4.8634873 392.680588,4.88116364 L392.162601,4.88116364 L392.162601,6.12130909 L392.711238,6.12130909 C392.906355,6.13052178 393.101542,6.10465473 393.287461,6.04494545 C393.483292,5.95708827 393.618708,5.77350608 393.644419,5.56101956 C393.67013,5.34853304 393.582387,5.13813249 393.413127,5.0064 Z" id="Combined-Shape"></path>
        </g>
    </g>
</svg>