<?xml version="1.0" encoding="utf-8"?>
<!-- Generator: Adobe Illustrator 22.0.1, SVG Export Plug-In . SVG Version: 6.00 Build 0)  -->
<svg version="1.1" id="Layer_2_1_" xmlns="http://www.w3.org/2000/svg" xmlns:xlink="http://www.w3.org/1999/xlink" x="0px" y="0px"
	 viewBox="0 0 462.8 228.8" style="enable-background:new 0 0 462.8 228.8;" xml:space="preserve">
<style type="text/css">
	.st0{fill:#004F39;}
	.st1{fill:none;stroke:#004F39;stroke-width:0.3699;stroke-linecap:round;}
</style>
<g>
	<g>
		<path class="st0" d="M9.6,167.3h4.6c3.1,0,5.4,0,7.7,1.5c1.5,0.8,2.3,3.1,2.3,4.6c0,3.1-2.3,4.6-3.1,4.6c1.5,1.5,4.6,2.3,4.6,6.9
			c0,3.1-1.5,4.6-3.1,6.2c-1.5,1.5-4.6,1.5-6.2,1.5H9.6V167.3z M14.2,177.3h1.5c0.8,0,3.9,0,3.9-3.1c0-1.5-0.8-3.1-3.9-3.1h-1.5
			V177.3z M14.2,188.1h2.3c0.8,0,4.6,0,4.6-3.1c0-0.8-0.8-3.1-4.6-3.1h-2.3V188.1z"/>
		<path class="st0" d="M45,173.5V192h-3.9v-1.5l0,0c-0.8,0.8-2.3,2.3-4.6,2.3c-3.1,0-5.4-1.5-6.2-3.1c-1.5-2.3-1.5-5.4-1.5-6.9v-10
			h4.6v10.8c0,1.5,0,5.4,3.9,5.4c3.1,0,3.9-2.3,3.9-5.4v-9.2H45V173.5z"/>
		<path class="st0" d="M48.9,167.3h4.6v3.9h-4.6V167.3z M48.9,173.5h4.6V192h-4.6V173.5z"/>
		<path class="st0" d="M56.6,167.3h4.6v25.4h-4.6V167.3z"/>
		<path class="st0" d="M84.3,192h-4.6v-2.3l0,0c-0.8,1.5-3.1,3.1-6.2,3.1c-4.6,0-9.2-3.9-9.2-10s5.4-10,9.2-10
			c3.1,0,4.6,0.8,5.4,2.3v-7.7h4.6V192H84.3z M74.3,188.9c3.1,0,5.4-3.1,5.4-6.2c0-3.1-2.3-6.2-5.4-6.2s-5.4,3.1-5.4,5.4
			C68.9,186.6,71.2,188.9,74.3,188.9z"/>
		<path class="st0" d="M87.4,167.3H92v3.9h-4.6V167.3z M87.4,173.5H92V192h-4.6V173.5z"/>
		<path class="st0" d="M95.1,173.5H99v1.5c0.8-0.8,2.3-2.3,5.4-2.3c1.5,0,3.9,0.8,5.4,2.3c1.5,2.3,1.5,5.4,1.5,6.9v10h-4.6v-9.2
			c0-1.5,0-6.2-3.9-6.2c-0.8,0-2.3,0.8-3.1,1.5s-0.8,3.1-0.8,4.6v9.2h-3.9V173.5z"/>
		<path class="st0" d="M135.2,173.5v15.4c0,9.2-6.9,10.8-10,10.8c-3.9,0-7.7-2.3-9.2-6.2h5.4c1.5,2.3,3.9,2.3,4.6,2.3
			c2.3,0,5.4-1.5,5.4-6.2l0,0c-0.8,0.8-2.3,3.1-6.2,3.1c-4.6,0-9.2-3.9-9.2-10s4.6-10,9.2-10c3.9,0,5.4,2.3,6.2,3.1l0,0v-2.3
			C131.3,173.5,135.2,173.5,135.2,173.5z M125.2,177.3c-3.1,0-5.4,2.3-5.4,5.4c0,3.9,3.1,6.2,5.4,6.2c3.1,0,5.4-2.3,5.4-6.2
			C130.6,180.4,128.2,177.3,125.2,177.3z"/>
		<path class="st0" d="M148.3,167.3h5.4c6.2,0,8.5,1.5,10,3.1c2.3,2.3,3.9,5.4,3.9,10c0,4.6-2.3,8.5-6.2,10.8
			c-2.3,1.5-5.4,1.5-8.5,1.5h-6.2v-25.4H148.3z M152.9,188.1h0.8c2.3,0,3.9,0,6.2-1.5c2.3-1.5,3.9-3.9,3.9-6.9
			c0-2.3-0.8-4.6-2.3-6.2c-1.5-1.5-4.6-2.3-6.9-2.3h-0.8v17H152.9z"/>
		<path class="st0" d="M171.4,173.5h3.9v1.5l0,0c0.8-1.5,1.5-2.3,3.9-2.3l0,0v4.6c-3.9,0-3.9,3.1-3.9,4.6v10.8h-4.6v-19.3H171.4z"/>
		<path class="st0" d="M186,185c0,1.5,2.3,3.9,5.4,3.9c2.3,0,3.9-0.8,4.6-2.3h4.6c-0.8,3.1-4.6,6.2-9.2,6.2c-5.4,0-10-4.6-10-10
			c0-5.4,3.9-10,10-10s10,5.4,10,10c0,0.8,0,1.5,0,2.3H186z M196.1,181.2c-0.8-3.1-2.3-4.6-5.4-4.6c-1.5,0-4.6,0.8-5.4,4.6H196.1z"
			/>
		<path class="st0" d="M222.3,192h-3.9v-2.3c-1.5,1.5-3.9,3.1-6.9,3.1c-4.6,0-9.2-3.9-9.2-10c0-5.4,3.9-10,9.2-10
			c3.9,0,6.2,3.1,6.2,3.1l0,0v-2.3h3.9V192H222.3z M213,177.3c-3.9,0-5.4,3.1-5.4,6.2s2.3,6.2,5.4,6.2c3.1,0,5.4-2.3,5.4-6.2
			C218.4,178.9,215.3,177.3,213,177.3z"/>
		<path class="st0" d="M226.1,173.5h3.9v1.5l0,0c0-0.8,1.5-2.3,4.6-2.3c0.8,0,3.9,0,5.4,3.1c2.3-3.1,4.6-3.1,6.2-3.1
			c3.9,0,5.4,2.3,6.2,3.1s1.5,3.1,1.5,5.4V192h-4.6v-10.8c0-0.8,0-4.6-3.9-4.6c-1.5,0-2.3,0.8-3.1,1.5c-0.8,0.8-0.8,3.1-0.8,3.9v9.2
			h-4.6v-10.8c0-2.3-0.8-4.6-3.9-4.6c-3.9,0-3.9,3.9-3.9,6.2v9.2h-3.1V173.5z"/>
		<path class="st0" d="M265.4,178.9c0-1.5-1.5-1.5-1.5-1.5c-0.8,0-1.5,0.8-1.5,1.5s0.8,1.5,3.1,2.3c2.3,0.8,5.4,1.5,5.4,5.4
			c0,3.9-3.1,6.9-6.9,6.9c-1.5,0-3.9-0.8-5.4-2.3c-0.8-1.5-1.5-3.1-1.5-3.9h4.6c0,0.8,0.8,2.3,2.3,2.3s2.3-0.8,2.3-1.5
			c0-1.5-0.8-1.5-3.9-3.1c-3.1-1.5-5.4-3.1-5.4-6.2c0-3.9,3.1-6.2,6.2-6.2c3.1,0,6.2,2.3,6.2,5.4h-3.9V178.9z"/>
	</g>
	<g>
		<path class="st0" d="M320.1,165c-0.8,2.3-2.3,3.1-4.6,3.1l0.8-1.5c-0.8,0-1.5,0-2.3,0c-1.5,0-3.1,0-6.2,0.8
			c-3.1,0.8-4.6,0.8-5.4,1.5l-1.5,6.2c-0.8,1.5-1.5,3.1-2.3,4.6c-0.8,0.8-2.3,3.1-3.9,6.2c-1.5,2.3-2.3,4.6-3.1,6.9l-3.1-0.8
			c0-1.5,1.5-3.1,3.1-6.2c2.3-3.9,3.9-6.2,4.6-7.7c1.5-3.1,2.3-6.2,2.3-9.2l0,0l-9.2,2.3c-1.5,0.8-3.1,1.5-4.6,1.5
			c-0.8,0-0.8,0-1.5-0.8c0-0.8-0.8-0.8-0.8-1.5l0.8-1.5c0.8,0,1.5-0.8,1.5-0.8h0.8c0.8,0,0.8,0,0.8,0c3.1,0,6.2-0.8,10-1.5
			c2.3-0.8,5.4-1.5,10-3.1c3.9-0.8,6.9-1.5,10-1.5c0.8,0,0.8,0,1.5,0C320.1,164.2,320.1,165,320.1,165z"/>
		<path class="st0" d="M330.9,185c0,2.3-1.5,4.6-5.4,5.4c-2.3,0.8-5.4,1.5-8.5,1.5c-6.2,0-9.2-1.5-9.2-4.6c0-2.3,2.3-3.9,6.2-6.2
			c3.9-1.5,6.2-2.3,9.2-2.3c2.3,0,3.9,0.8,5.4,1.5C330.1,181.2,330.9,183.5,330.9,185z M328.6,185c0-1.5-0.8-2.3-1.5-3.1
			c-0.8-0.8-2.3-0.8-3.9-0.8c-2.3,0-4.6,0.8-6.9,1.5c-2.3,1.5-4.6,3.1-5.4,4.6c1.5,1.5,3.9,2.3,6.2,2.3s4.6-0.8,6.9-1.5
			C327,188.1,328.6,186.6,328.6,185z"/>
		<path class="st0" d="M347.8,181.9c0,0.8,0,1.5-0.8,3.1c0,0.8,0,1.5,0,1.5c0,3.9,0,6.9-0.8,9.2c-1.5,8.5-5.4,12.3-12.3,12.3
			c-1.5,0-3.1,0-4.6-0.8c-2.3-0.8-3.1-1.5-3.1-3.1c0,0,0-0.8,0-1.5h0c0.8,0.8,1.5,1.5,3.1,2.3c1.5,0.8,3.1,0.8,3.9,0.8
			c3.1,0,5.4-1.5,7.7-4.6c1.5-2.3,3.1-5.4,3.1-8.5c0-0.8,0-1.5-0.8-2.3c-0.8,0-0.8,0-1.5,0h-0.8h-0.8c-2.3,0-4.6,0-5.4-0.8
			c-2.3-0.8-3.1-1.5-3.1-3.1c0-2.3,1.5-4.6,3.9-6.2c2.3-1.5,5.4-2.3,7.7-2.3C346.3,178.1,347.8,178.9,347.8,181.9z M345.5,181.2
			c0-0.8-0.8-1.5-2.3-1.5s-3.1,0.8-5.4,2.3c-2.3,1.5-3.1,3.1-3.1,4.6c0,1.5,1.5,2.3,4.6,2.3c0.8,0,1.5,0,2.3,0
			c1.5,0,1.5-0.8,1.5-1.5v-0.8v-0.8c0,0,0.8-1.5,1.5-3.1C345.5,181.9,345.5,181.9,345.5,181.2z"/>
		<path class="st0" d="M366.3,189.6c-0.8,0.8-2.3,1.5-5.4,1.5c-2.3,0-3.9,0.8-6.2,0.8c-4.6,0-6.2-1.5-6.2-3.9c0-3.1,2.3-5.4,6.9-7.7
			c1.5-0.8,3.1-1.5,4.6-1.5c1.5,0,3.1,0.8,3.1,0.8c0.8,0,1.5,1.5,1.5,3.1c0,1.5-0.8,2.3-2.3,3.1s-3.1,0.8-4.6,0.8
			c-2.3,0-3.9,0-5.4-0.8c-1.5,0.8-1.5,1.5-1.5,2.3c0,1.5,1.5,2.3,4.6,2.3c0.8,0,2.3,0,3.9,0C363.3,189.6,365.6,189.6,366.3,189.6z
			 M362.5,182.7c-0.8-0.8-1.5-1.5-3.1-1.5c-0.8,0-1.5,0-2.3,0.8c0,0-0.8,0-2.3,0.8c0.8,1.5,1.5,1.5,3.1,1.5
			C360.2,185,361.7,184.2,362.5,182.7z"/>
		<path class="st0" d="M384.8,169.6c0,0.8,0,1.5-0.8,2.3c0,0-0.8,1.5-2.3,3.1c0.8,0.8,1.5,0.8,2.3,1.5s0.8,1.5,0.8,2.3v0.8
			c0,0-0.8,0-1.5-0.8c-0.8,0-1.5,0-1.5,0c-1.5,0-3.1,1.5-6.2,4.6c-2.3,3.1-3.9,5.4-3.9,6.9c0,1.5,0.8,2.3,3.1,3.1
			c1.5,0,3.1,0.8,4.6,0.8c0.8,0,1.5,0,2.3,0c0,0,0,0,0,0.8c-1.5,0.8-3.1,0.8-4.6,0.8c-5.4,0-8.5-1.5-8.5-3.9c0-1.5,1.5-3.9,4.6-6.9
			l3.1-3.9h-1.5c-0.8,0-1.5,0-2.3,0.8c-1.5,0.8-3.1,0.8-3.1,0.8c-0.8,0-0.8,0-1.5-0.8l-0.8-0.8c0-0.8,0.8-1.5,3.1-1.5h0.8
			c0.8,0,0.8,0,0.8,0c1.5,0,3.9,0,4.6-0.8c1.5-0.8,2.3-1.5,3.1-3.1c0-0.8,0.8-2.3,2.3-4.6c0,0,0.8,0,0.8,0.8
			C384.1,168.8,384.8,168.8,384.8,169.6z"/>
		<path class="st0" d="M409.5,180.4c0,1.5-0.8,3.1-2.3,6.2c-1.5,3.1-2.3,4.6-2.3,5.4s0,1.5,0.8,2.3c-0.8,0.8-1.5,0.8-2.3,0.8
			s-1.5-0.8-1.5-1.5s0.8-3.1,2.3-6.2c1.5-3.1,2.3-5.4,2.3-6.2c0,0,0,0,0-0.8v-0.8c-3.9,0.8-7.7,1.5-10.8,4.6
			c-3.9,2.3-6.2,5.4-7.7,8.5c-0.8,0-1.5-0.8-2.3-0.8c0-0.8,0.8-1.5,2.3-3.9c0.8-0.8,2.3-3.1,4.6-6.2c1.5-2.3,3.1-4.6,3.9-5.4
			c0,0,0.8-2.3,2.3-5.4c0.8-2.3,1.5-3.9,3.1-4.6c0,0,0.8,0,0.8,0.8l0.8,0.8c0,0-2.3,4.6-6.2,13.9c2.3-0.8,3.9-1.5,5.4-2.3
			c3.1-1.5,4.6-1.5,5.4-1.5c0.8,0,0.8,0,0.8,0C408.7,178.1,409.5,179.6,409.5,180.4z"/>
		<path class="st0" d="M427.2,189.6c-0.8,0.8-2.3,1.5-5.4,1.5c-2.3,0-3.9,0.8-6.2,0.8c-4.6,0-6.2-1.5-6.2-3.9c0-3.1,2.3-5.4,6.9-7.7
			c1.5-0.8,3.1-1.5,4.6-1.5c1.5,0,3.1,0.8,3.1,0.8c0.8,0,1.5,1.5,1.5,3.1c0,1.5-0.8,2.3-2.3,3.1c-1.5,0.8-3.1,0.8-4.6,0.8
			c-2.3,0-3.9,0-5.4-0.8c-1.5,0.8-1.5,1.5-1.5,2.3c0,1.5,1.5,2.3,4.6,2.3c0.8,0,2.3,0,3.9,0C424.1,189.6,426.4,189.6,427.2,189.6z
			 M423.4,182.7c-0.8-0.8-1.5-1.5-3.1-1.5c-0.8,0-1.5,0-2.3,0.8c0,0-0.8,0-2.3,0.8c0.8,1.5,1.5,1.5,3.1,1.5
			C421,185,422.6,184.2,423.4,182.7z"/>
		<path class="st0" d="M444.2,183.5l-6.2-2.3c-1.5,0-3.1,0.8-3.9,3.1c-0.8,0.8-0.8,2.3-2.3,4.6c-0.8,2.3-2.3,3.9-4.6,3.9
			c0-0.8,0.8-2.3,2.3-4.6c1.5-2.3,2.3-3.1,2.3-4.6c0-0.8,0-2.3,0.8-3.9c0-0.8,0-1.5,0.8-2.3c0.8-0.8,0.8-1.5,1.5-1.5h0.8l0.8,2.3
			c0,0.8,0.8,0.8,1.5,0.8h1.5h0.8C442.6,180.4,444.2,181.2,444.2,183.5z"/>
	</g>
</g>
<path class="st1" d="M243.9,131.8c10.2-2.1,20.3-1,25.4,0"/>
<g>
	<polygon class="st0" points="42.7,34.8 134.4,34.8 139.8,21.7 47.3,21.7 	"/>
	<polygon class="st0" points="145.2,35.5 204.5,34.8 207.6,22.4 149.1,22.4 	"/>
	<polygon class="st0" points="115.1,122.6 174.5,121.8 177.6,109.5 119,109.5 	"/>
	<polygon class="st0" points="184.5,122.6 246.9,122.6 251.5,109.5 188.3,109.5 	"/>
	<polygon class="st0" points="12.7,122.6 40.4,41.7 67.4,41.7 39.6,123.4 	"/>
	<polygon class="st0" points="45.8,122.6 73.5,41.7 100.5,41.7 72.8,123.4 	"/>
	<polygon class="st0" points="78.2,122.6 105.9,41.7 132.9,41.7 105.1,123.4 	"/>
	<polygon class="st0" points="189.9,102.6 218.4,21.7 245.4,21.7 216.9,103.3 	"/>
	<polygon class="st0" points="226.9,102.6 254.6,21.7 281.6,21.7 253.8,103.3 	"/>
	<polygon class="st0" points="154.4,103.3 168.3,61.7 195.3,61.7 181.4,103.3 	"/>
	<polygon class="st0" points="128.2,83.3 142.1,41.7 169.1,41.7 155.2,83.3 	"/>
	<path class="st0" d="M11.9,135.7v3.9h5.4v2.3h-5.4v6.9H9.6v-15.4h8.5v2.3C18.1,135.7,11.9,135.7,11.9,135.7z"/>
	<path class="st0" d="M34.2,135.7v3.9h6.9v2.3H35v5.4h6.2v2.3h-9.2v-15.4h9.2v2.3h-6.9V135.7z"/>
	<path class="st0" d="M56.6,146.5v-10.8h0.8c2.3,0,3.1,0,4.6,0.8c1.5,0.8,2.3,2.3,2.3,4.6c0,1.5-0.8,3.1-2.3,4.6
		c-1.5,0.8-2.3,0.8-4.6,0.8C57.4,146.5,56.6,146.5,56.6,146.5z M54.3,148.8h3.1c3.1,0,4.6,0,6.2-1.5c2.3-1.5,3.1-3.9,3.1-6.2
		s-0.8-4.6-3.1-6.2c-1.5-0.8-3.1-1.5-6.2-1.5h-3.9v15.4H54.3z"/>
	<path class="st0" d="M82.8,135.7v3.9H89v2.3h-6.2v5.4h6.9v2.3h-9.2v-15.4h9.2v2.3h-6.9V135.7z"/>
	<path class="st0" d="M105.9,141.1v-4.6h0.8c2.3,0,3.9,0.8,3.9,2.3c0,1.5-1.5,2.3-3.9,2.3C106.7,141.1,105.9,141.1,105.9,141.1z
		 M109,142.6c2.3-0.8,3.9-2.3,3.9-4.6c0-1.5-0.8-3.1-2.3-3.9c-0.8-0.8-2.3-0.8-4.6-0.8h-3.1v15.4h2.3v-6.2h0.8l4.6,6.2h3.1
		L109,142.6z"/>
	<path class="st0" d="M134.4,143.4H129l2.3-5.4L134.4,143.4z M135.2,144.9l1.5,3.9h3.1l-7.7-16.2l-8.5,16.2h3.1l1.5-3.9H135.2z"/>
	<path class="st0" d="M155.2,146.5h4.6v2.3h-7.7v-15.4h2.3v13.1H155.2z"/>
	<path class="st0" d="M199.9,138c-1.5-1.5-3.1-1.5-4.6-1.5c-3.1,0-6.2,2.3-6.2,6.2c0,3.1,3.1,5.4,6.2,5.4c1.5,0,3.1-0.8,4.6-1.5v3.1
		c-1.5,0.8-3.1,0.8-4.6,0.8c-4.6,0-8.5-3.1-8.5-7.7c0-4.6,3.9-7.7,8.5-7.7c1.5,0,3.1,0,4.6,0.8V138z"/>
	<path class="st0" d="M214.5,141.1v-4.6h0.8c2.3,0,3.9,0.8,3.9,2.3c0,1.5-1.5,2.3-3.9,2.3C215.3,141.1,214.5,141.1,214.5,141.1z
		 M217.6,142.6c2.3-0.8,3.9-2.3,3.9-4.6c0-1.5-0.8-3.1-2.3-3.9c-0.8-0.8-2.3-0.8-4.6-0.8h-3.1v15.4h2.3v-6.2h0.8l4.6,6.2h3.1
		L217.6,142.6z"/>
	<path class="st0" d="M237.7,135.7v3.9h6.2v2.3h-6.2v5.4h6.9v2.3h-9.2v-15.4h9.2v2.3h-6.9V135.7z"/>
	<path class="st0" d="M260.8,146.5v-10.8h0.8c2.3,0,3.1,0,4.6,0.8c1.5,0.8,2.3,2.3,2.3,4.6c0,1.5-0.8,3.1-2.3,4.6
		c-1.5,0.8-2.3,0.8-4.6,0.8C261.5,146.5,260.8,146.5,260.8,146.5z M258.5,148.8h3.9c3.1,0,4.6,0,6.2-1.5c2.3-1.5,3.1-3.9,3.1-6.2
		s-0.8-4.6-3.1-6.2c-1.5-0.8-3.1-1.5-6.2-1.5h-3.9V148.8z"/>
	<path class="st0" d="M286.2,148.8h-2.3v-15.4h2.3V148.8z"/>
	<path class="st0" d="M306.2,148.8h-2.3v-13.1h-3.9v-2.3h10v2.3h-3.9V148.8z"/>
	<path class="st0" d="M337.8,143.4c0,1.5,0,2.3,0.8,2.3c0.8,0.8,1.5,1.5,3.1,1.5s2.3-0.8,3.1-1.5c0.8-0.8,0.8-1.5,0.8-2.3v-9.2h2.3
		v10c0,3.1-2.3,5.4-6.2,5.4c-3.9,0-6.2-2.3-6.2-5.4v-10h2.3V143.4z"/>
	<path class="st0" d="M361.7,132.6l9.2,11.6v-10.8h2.3v16.2L364,138v10.8h-2.3V132.6z"/>
	<path class="st0" d="M430.3,132.6l9.2,11.6v-10.8h2.3v16.2l-9.2-11.6v10.8h-1.5v-16.2H430.3z"/>
	<path class="st0" d="M388.7,148.8h-2.3v-15.4h2.3V148.8z"/>
	<path class="st0" d="M410.3,135.7c2.3,0,4.6,2.3,4.6,6.2c0,3.1-2.3,5.4-4.6,5.4c-2.3,0-4.6-2.3-4.6-5.4
		C405.6,138,407.2,135.7,410.3,135.7z M410.3,133.4c-3.9,0-6.2,3.9-6.2,7.7c0,4.6,3.1,7.7,6.2,7.7c3.9,0,6.2-3.9,6.2-7.7
		S413.3,133.4,410.3,133.4z"/>
	<path class="st0" d="M292.4,54l5.4-32.4h12.3l2.3,20l9.2-20H334l-5.4,31.6h-9.2l1.5-10l0.8-4.6l1.5-5.4l0,0l-9.2,20H307l-2.3-20
		l0,0v4.6l-1.5,5.4L301.6,54H292.4z"/>
	<path class="st0" d="M306.2,64c-4.6-0.8-9.2-0.8-10.8,0c-2.3,0.8-2.3,1.5-2.3,2.3c-0.8,3.9,12.3,2.3,11.6,13.1
		c-0.8,7.7-6.9,9.2-12.3,9.2c-6.9,0-13.1-1.5-13.1-2.3l1.5-6.2c1.5,0.8,2.3,0.8,3.1,0.8c1.5,0,3.9,0,5.4,0c2.3,0,6.2-1.5,6.2-3.1
		c0.8-4.6-11.6-3.1-11.6-12.3c0-5.4,5.4-10,13.9-9.2c6.9,0,10,1.5,10,1.5L306.2,64z"/>
	<path class="st0" d="M276.2,91.8h8.5L280,111c-0.8,3.1,0.8,6.2,3.9,6.2c3.9,0,5.4-1.5,6.2-6.2l3.9-19.3h8.5l-3.1,18.5
		c-1.5,10-9.2,13.9-17.7,13.9c-6.2,0-11.6-6.9-10-13.9L276.2,91.8z"/>
	<path class="st0" d="M332.4,53.3l3.1-20.8h6.2l-3.1,20.8H332.4z"/>
	<path class="st0" d="M361.7,37.8c0-0.8-6.9-0.8-9.2,0c-2.3,0.8-3.9,2.3-4.6,6.2c-0.8,3.1,1.5,5.4,2.3,5.4c1.5,0.8,6.2,0.8,7.7,0V54
		c0,0.8-5.4,0.8-8.5,0.8c-3.9,0-9.2-3.9-7.7-10.8c0.8-6.9,6.2-11.6,11.6-11.6c5.4,0,8.5,1.5,8.5,1.5V37.8z"/>
	<path class="st0" d="M361.7,53.3l3.1-20.8h6.2l-0.8,6.9h5.4l0.8-6.9h6.2l-3.1,20.8h-6.2l1.5-7.7h-5.4l-1.5,7.7H361.7z"/>
	<path class="st0" d="M382.5,53.3l3.1-20.8h6.2l-3.9,20.8H382.5z"/>
	<path class="st0" d="M408.7,49.4c0,0-1.5,2.3-3.1,3.9c-0.8,0.8-3.1,0.8-6.2,0.8c-4.6,0-8.5-3.1-6.9-10.8
		c0.8-6.2,4.6-10.8,10.8-10.8c4.6,0,5.4,0,6.9,1.5l-0.8,3.9c-2.3-0.8-5.4-0.8-6.9-0.8c-2.3,0-3.9,2.3-4.6,6.2
		c-0.8,3.1,0,5.4,3.1,5.4c1.5,0,3.1-0.8,3.1-2.3h-2.3l0.8-4.6h8.5L408.7,49.4z"/>
	<path class="st0" d="M424.1,45.6h-3.9l3.9-6.9V45.6z M415.7,53.3l0.8-3.1h7.7v3.1h6.2l-3.1-20.8H421l-11.6,20.8H415.7z"/>
	<path class="st0" d="M446.5,44l0.8-4.6l0.8-6.9h5.4l-3.1,20.8h-5.4l-4.6-11.6l-0.8,4.6l-0.8,6.2h-5.4l3.1-20.8h5.4L446.5,44z"/>
	<path class="st0" d="M315.5,114.1l0.8-4.6l0.8-6.2h5.4l-3.1,20.8h-5.4l-4.6-11.6l-0.8,4.6l-0.8,6.2h-4.6l3.1-20.8h4.6L315.5,114.1z
		"/>
	<path class="st0" d="M322.4,123.4l3.1-20.8h5.4l-3.1,20.8H322.4z"/>
	<path class="st0" d="M333.2,103.3h5.4l0.8,13.9l4.6-13.9h5.4l-7.7,20h-5.4L333.2,103.3z"/>
	<path class="st0" d="M349.4,123.4l3.1-20.8h13.9l-0.8,4.6h-8.5v3.9h6.9l-0.8,4.6h-6.9l-0.8,3.1h8.5l-0.8,4.6H349.4z"/>
	<path class="st0" d="M374,108h2.3c1.5,0,2.3,0.8,1.5,2.3c0,1.5-1.5,2.3-3.1,2.3h-2.3L374,108z M374,116.4c2.3,0,3.1,0.8,2.3,3.9
		c0,1.5,0,3.1,0,3.9h7.7v-0.8c-0.8,0-0.8-0.8-0.8-3.9c0.8-3.9-1.5-4.6-3.1-5.4c2.3-0.8,3.1-2.3,3.9-5.4c0.8-3.9-0.8-6.2-6.9-6.2
		h-7.7l-3.1,20.8h5.4l0.8-6.9H374z"/>
	<path class="st0" d="M401.8,108c-0.8-0.8-4.6-0.8-5.4-1.5c-0.8,0-3.1,0-3.1,0c-0.8,0.8-2.3,1.5-2.3,2.3c0,3.1,10,0.8,9.2,8.5
		c-0.8,4.6-5.4,6.9-10,6.9s-6.2-0.8-6.2-0.8l0.8-3.9c0,0.8,5.4,0,6.2,0c1.5,0,2.3-0.8,2.3-1.5c0.8-3.1-9.2-0.8-8.5-8.5
		c0.8-4.6,3.9-6.9,8.5-6.9c4.6,0,8.5,0.8,8.5,0.8L401.8,108z"/>
	<path class="st0" d="M401,123.4l3.1-20.8h5.4l-3.1,20.8H401z"/>
	<path class="st0" d="M411.8,103.3h15.4l-0.8,5.4h-4.6l-2.3,15.4h-5.4l2.3-15.4H411L411.8,103.3z"/>
	<path class="st0" d="M437.2,123.4h-6.2l0.8-7.7l-4.6-13.1h6.2l2.3,7.7l5.4-7.7h6.9l-10,12.3L437.2,123.4z"/>
	<path class="st0" d="M307.8,67.1h13.9l-0.8,5.4h-4.6l-2.3,15.4h-4.6l2.3-15.4H307L307.8,67.1z"/>
	<path class="st0" d="M330.1,80.2h-4.6l3.9-6.2L330.1,80.2z M320.1,87.9l1.5-3.1h7.7v3.1h4.6l-3.1-20.8h-5.4l-12.3,20.8H320.1z"/>
	<path class="st0" d="M338.6,67.1h13.9l-0.8,5.4h-4.6l-2.3,15.4h-4.6l2.3-15.4h-4.6L338.6,67.1z"/>
	<path class="st0" d="M352.5,87.9l2.3-20.8h12.3l-0.8,4.6h-7.7l-0.8,3.1h6.9l-0.8,4.6h-6.2l0,3.9h7.7l-0.8,4.6H352.5z"/>
	<path class="st0" d="M448,122.6c-2.3,0-3.9-2.3-3.9-4.6c0-3.1,1.5-4.6,3.9-4.6s3.9,2.3,3.9,4.6C451.9,121.1,450.3,122.6,448,122.6z
		 M448,124.1c3.1,0,5.4-3.1,5.4-6.2c0-3.9-2.3-6.2-5.4-6.2c-3.1,0-5.4,3.1-5.4,6.2C442.6,121.8,444.9,124.1,448,124.1z M449.6,118.8
		c0.8,0,1.5-0.8,1.5-1.5c0-1.5-0.8-2.3-2.3-2.3h-3.1v6.9h1.5v-3.1h0.8l1.5,3.1h1.5L449.6,118.8z M447.2,117.2v-1.5h1.5
		c0.8,0,1.5,0,1.5,0.8s-0.8,0.8-1.5,0.8H447.2z"/>
</g>
</svg>
