<?xml version="1.0" encoding="utf-8"?>
<!-- Generator: Adobe Illustrator 24.0.1, SVG Export Plug-In . SVG Version: 6.00 Build 0)  -->
<svg version="1.1" id="Layer_1" xmlns="http://www.w3.org/2000/svg" xmlns:xlink="http://www.w3.org/1999/xlink" x="0px" y="0px"
	 viewBox="0 0 2100 256" style="enable-background:new 0 0 2100 256;" xml:space="preserve">
<style type="text/css">
	.st0{fill:#FFFFFF;}
</style>
<title>1-</title>
<g id="Logos">
	<g id="Black">
		<g id="TechSmith">
			<g id="TechSmith_Logo_256px">
				<polygon class="st0" points="128.2,153 25.2,256 231.3,256 				"/>
				<polygon class="st0" points="256,231.3 256,0 24.7,0 				"/>
				<polygon class="st0" points="103.6,128.3 0,24.7 0,231.9 				"/>
				<path class="st0" d="M407,34h-85V4h204v30h-85v218h-34V34z"/>
				<path class="st0" d="M600.8,70.2c50.2,0,76.8,37.2,76.8,83.1c0,4.6-1,14.7-1,14.7H547.1c1.8,38.9,29.5,58.6,61,58.6
					c30.5,0,52.6-20.7,52.6-20.7l14,24.9c0,0-26.3,25.2-68.7,25.2c-55.8,0-94-40.3-94-92.9C512,106.6,550.3,70.2,600.8,70.2z
					 M642.8,142c-1-30.5-20-45.2-42.8-45.2c-26,0-47,16.1-51.9,45.2H642.8z"/>
				<path class="st0" d="M801.3,70.1c44.5,0,66.6,26,66.6,26L851.8,120c0,0-18.9-20.3-49.1-20.3C767,99.6,741,126.2,741,162.7
					c0,36.1,26,63.8,62.8,63.8c33,0,54.7-23.8,54.7-23.8l13.7,24.9c0,0-24.5,28.4-70.8,28.4c-55.8,0-95-39.6-95-92.9
					C706.3,110.5,745.6,70.1,801.3,70.1z"/>
				<path class="st0" d="M911,5h34v90.3c0,8.4-0.7,14.7-0.7,14.7h0.7c7.7-17.2,30-39.6,65.3-39.6c41.5,0,60.7,22.8,60.7,68V252h-34
					V146.1c0-24.9-5.2-44.5-33.5-44.5c-26.5,0-48.4,18.2-55.8,43.8c-2.1,7-2.8,15.1-2.8,23.5V252h-34V5z"/>
				<path class="st0" d="M1129.9,197.1c0,0,26.3,26.6,63.1,26.6c23.1,0,42.8-13,42.8-36.5c0-53.6-119.9-42.1-119.9-118.2
					c0-38.6,33.3-69.1,80-69.1c45.9,0,70.1,24.9,70.1,24.9l-15.8,28.8c0,0-22.8-21.4-54.4-21.4c-26.3,0-44.9,16.5-44.9,36.1
					c0,51.2,119.9,37.5,119.9,117.8c0,38.2-29.4,69.8-78.5,69.8c-52.6,0-82.1-32.6-82.1-32.6L1129.9,197.1z"/>
				<path class="st0" d="M1313,75h33v22.8l-0.1,13.2h0.7c8.4-20.9,33.3-40.9,61-40.9c40.8,0,53.3,40.9,53.3,40.9h0.7
					c9.8-21.3,34.3-40.2,63-40.2c39.9,0,58.4,22.8,58.4,67.9V252h-34V145.8c0-24.9-4.9-44.5-31.6-44.5c-25,0-43.6,21-49.9,45.2
					c-1.8,8.1-2.6,16.3-2.5,24.6v81h-34V145.8c0-23.1-3.5-44.5-30.9-44.5c-26,0-44.3,21.4-51,46.6c-1.8,7-2.1,15.1-2.1,23.1v81h-34
					L1313,75z"/>
				<path class="st0" d="M1634,5h34v34h-34V5z M1634,75h34v177h-34V75z"/>
				<path class="st0" d="M1729,104h-23V77h24V25h33v52h43v27h-43v78.9c0,35.4,24.9,40,37.9,40c2.7,0,5.4-0.2,8.1-0.7v30.2
					c-4,0.5-7.9,0.7-11.9,0.7c-22.8,0-68.1-7-68.1-66.3V104z"/>
				<path class="st0" d="M1847,5h34v90.3c0,8.4-0.7,14.7-0.7,14.7h0.7c7.7-17.2,30-39.6,65.3-39.6c41.5,0,60.7,22.8,60.7,68V252h-34
					V146.1c0-24.9-5.2-44.5-33.4-44.5c-26.5,0-48.4,18.2-55.8,43.8c-2.1,7-2.8,15.1-2.8,23.5V252h-34V5z"/>
				<path class="st0" d="M2052.7,4.7c16.8,0,30.4,13.7,30.4,30.5c0,0.1,0,0.2,0,0.3c0,17.3-13.5,30.9-30.4,30.9
					c-16.5,0-29.9-13.6-29.9-30.8C2022.8,18.3,2036.2,4.7,2052.7,4.7z M2052.7,61.7c14.4,0,25.4-11.4,25.4-26.3
					c0-14.7-11-26.2-25.4-26.2c-14.1,0-24.9,11.5-24.9,26.2C2027.8,50.3,2038.7,61.7,2052.7,61.7L2052.7,61.7z M2043,19h11.4
					c5.7,0,9.6,3.9,9.6,9.8c0,4.9-3,8-6,8.7v0.6c0.4,0.6,0.8,1.2,1.1,1.8l6.5,12.1h-5.4l-6.8-13h-6.5v13h-4V19z M2053.2,35
					c3.6,0,5.9-2.3,5.9-6.1s-2.3-5.9-5.9-5.9h-6.2v12H2053.2z"/>
			</g>
		</g>
	</g>
</g>
</svg>
