<?xml version="1.0" encoding="utf-8"?>
<!-- Generator: Adobe Illustrator 24.0.1, SVG Export Plug-In . SVG Version: 6.00 Build 0)  -->
<svg version="1.1" id="dmMain" xmlns="http://www.w3.org/2000/svg" xmlns:xlink="http://www.w3.org/1999/xlink" x="0px" y="0px"
	 viewBox="0 0 348 400" style="enable-background:new 0 0 348 400;" xml:space="preserve">
<style type="text/css">
	.st0{fill:#FFFFFF;}
	.st1{fill:#231F20;}
</style>
<g id="logo">
	<g id="skyParts">
		<g id="backs">
			<path class="st0" d="M175.83,61.49l-1.17-6.34l5.47-1.01l-5.35-35.95l10.05-1.5l5.48,36.88l10.11-0.86l6.82,80.1
				c-4.25,0.04-8.55,0.3-12.87,0.86c-3.82,0.49-7.58,1.2-11.28,2.08l-23.07-87.41l9.82-2.59l4.25,16.09L175.83,61.49z"/>
			<path class="st0" d="M145.27,154.73l-46.33-63.3l-7.89,5.78l19.66,26.87l-6.44,5.4l-26.81-27.81l-7.04,6.79l58.97,61.18
				C134.21,164.08,139.53,159.1,145.27,154.73z"/>
			<path class="st0" d="M132.88,120.6l16.06,29.91c8.57-5.66,17.92-10.04,27.84-13.04l-5.53-16.71l-8.18,2.71l-3.23-8.05l-8.61,3.45
				L140.45,96.2l-8.83,4.2l7.91,16.63L132.88,120.6z"/>
			<path class="st0" d="M60.1,150.26l-4.7,8.57l57.51,31.53c2.88-5.46,6.22-10.72,10.07-15.71c1.44-1.86,2.94-3.65,4.48-5.4
				L36.22,92.01l-6.32,7.46l30.37,25.71l-5.57,7.42l34.06,25.58l-3.7,5.76L60.1,150.26z"/>
			<path class="st0" d="M112.4,187.15c2.47-4.32,5.23-8.5,8.32-12.5c2.92-3.79,6.08-7.33,9.42-10.65l-56.51-42.62l-5.88,7.79
				l33.95,25.6l-3.71,5.75l-24.83-13.67l-4.71,8.55l11.86,6.53l-3.97,8.66L112.4,187.15z"/>
			<path class="st0" d="M211.7,132.85l-1.81-58.4l-9.77,0.3l1.8,58.24C205.2,132.8,208.46,132.75,211.7,132.85z"/>
			<path class="st0" d="M237.58,136.91l7.1-41.78l-5.82-0.99l1.68-12.65l-9.69-1.29l-7.14,53.74
				C228.43,134.63,233.06,135.61,237.58,136.91z"/>
			<path class="st0" d="M264.77,148.96l27.22-61.06l-8.93-3.98l-26.85,60.24C259.14,145.63,261.99,147.24,264.77,148.96z"/>
			<path class="st0" d="M255.92,144.02l25.18-73.08l-9.25-3.19l-6.67,19.36l1.23-4.35L257,80.11l-16.29,57.75
				C245.95,139.54,251.04,141.59,255.92,144.02z"/>
			<path class="st0" d="M218.65,133.32V85.24h-9.78v47.57C212.16,132.83,215.42,133,218.65,133.32z"/>
			<path class="st0" d="M259.51,145.91l32.53-78.46L283,63.71l-32.3,77.9C253.71,142.91,256.64,144.35,259.51,145.91z"/>
			<path class="st0" d="M102.88,218.05c1.6-7.58,4.04-14.96,7.26-22.05l-37.85-18.73l-3.32,6.71L39.3,171.97l-5.5,13.6l9.22,3.73
				l-2.78,8.67L102.88,218.05z"/>
			<path class="st0" d="M102.69,219.02L42.6,208.84l-1.6,9.42l0.16,0.03l-13.09-1.34l-0.97,9.5l73.66,7.54
				C101.05,228.94,101.7,223.94,102.69,219.02z"/>
			<path class="st0" d="M101.81,256.37l-16.62,3.38l1.43,7.02l-7.21,1.91l2.5,9.45l6.24-1.65l1.72,5.46l16.99-5.35
				C104.55,270.09,102.85,263.33,101.81,256.37z"/>
			<path class="st0" d="M101.46,254.12c-0.43-3.35-0.69-6.69-0.82-10.02l-47.56,2.81l0.58,9.76l17.09-1.01l0.9,7.71l30.7-3.59
				C102.01,257.91,101.71,256.03,101.46,254.12z"/>
			<path class="st0" d="M122.15,304.99L10.28,375.73l5.23,8.27l45.36-28.68l5.7,7.85l65.04-47.24
				C128.19,312.48,125.04,308.83,122.15,304.99z"/>
			<path class="st0" d="M112.01,288.7l-46.05,19l2.96,7.17L40.5,329.34l4.8,9.44l-23.45,14.48l7.71,12.48L124,307.41
				C119.35,301.6,115.34,295.33,112.01,288.7z"/>
			<path class="st0" d="M192.23,134l-14.55-72.88l-9.96,1.99l14.54,72.85C185.53,135.16,188.85,134.5,192.23,134z"/>
			<path class="st0" d="M122.98,174.65c2.99-3.87,6.22-7.49,9.64-10.87L51.26,86.26l-9,11.59l80.66,76.87
				C122.94,174.7,122.96,174.67,122.98,174.65z"/>
		</g>
		<g id="fronts">
			<path class="st1" d="M257.31,144.74l20.95-54.24l-7.87-3.04l-20.74,53.71C252.24,142.26,254.8,143.45,257.31,144.74z"/>
			<path class="st1" d="M107.39,202.57l-27.88-11.75l-1.79,4.24l-18.2-6.99l-3.56,9.25l47.48,18.25
				C104.49,211.16,105.79,206.81,107.39,202.57z"/>
			<path class="st1" d="M116.09,296.05l-65.15,37.71l4.9,8.46l65.71-38.03C119.6,301.56,117.78,298.85,116.09,296.05z"/>
			<path class="st1" d="M119.74,301.69L75.32,331l5.39,8.16l45.01-29.7C123.6,306.96,121.61,304.37,119.74,301.69z"/>
			<path class="st1" d="M105.12,164.54l-4.08,6.46l16.96,10.71c1.57-2.4,3.21-4.77,4.98-7.07c3.39-4.39,7.08-8.47,11.02-12.24
				l-5.42-5.96l-5.89,5.36L56.9,104.12l-5.57,6.35l29.49,25.86l-4.59,5.96L105.12,164.54z"/>
			<path class="st1" d="M194.38,133.67c2.96-0.38,5.9-0.61,8.82-0.74l-4.82-53.95l-6.64,0.59l-1.37-9.8l-9.81,1.37l8.82,63.31
				C191.04,134.15,192.71,133.88,194.38,133.67z"/>
			<path class="st1" d="M257.7,144.95l23-56.35l-9.17-3.75l-22.83,55.93C251.77,142.03,254.78,143.42,257.7,144.95z"/>
			<path class="st1" d="M255.51,143.83l12.54-44.18l-9.53-2.71l-12.17,42.88C249.47,141.02,252.52,142.36,255.51,143.83z"/>
		</g>
	</g>
	<g id="base">
		<path id="fTail" class="st0" d="M332.9,215.02c-5.28-30.92-22.28-57.94-47.88-76.07c-4.09-2.9-8.34-5.48-12.69-7.81l-4.91,10.67
			c3.7,2.01,7.32,4.25,10.81,6.73c23.04,16.32,38.34,40.63,43.09,68.46c0.5,2.93,0.85,5.85,1.1,8.78l11.75-0.48
			C333.9,221.87,333.49,218.45,332.9,215.02z"/>
		<path id="crc" class="st1" d="M324.62,225.32c-4.02-31.11-19.9-58.8-44.74-77.96c-24.84-19.16-55.65-27.49-86.76-23.49
			c-31.11,4.02-58.8,19.9-77.96,44.74c-19.16,24.84-27.5,55.65-23.48,86.76c3.75,29.03,17.87,54.22,38.13,72.36l8.56-8.1
			c-18.63-16.37-31.63-39.29-35.04-65.76c-3.61-28,3.89-55.73,21.13-78.09c17.24-22.35,42.16-36.65,70.16-40.27
			c4.6-0.59,9.18-0.89,13.75-0.89c23.21,0,45.66,7.61,64.34,22.02c22.35,17.24,36.65,42.16,40.27,70.16
			c3.61,28-3.89,55.73-21.13,78.08c-17.24,22.35-42.16,36.66-70.16,40.27c-11.3,1.46-22.41,1.05-33.04-0.96l-10.26,9.71
			c9.54,2.51,19.49,3.87,29.69,3.87c4.99,0,10.04-0.32,15.11-0.98c31.11-4.01,58.79-19.91,77.95-44.74
			C320.3,287.25,328.64,256.43,324.62,225.32z"/>
		<polygon id="chck" class="st0" points="113.11,356.46 106.44,349.31 210.81,251.87 246.06,289.5 238.92,296.18 210.35,265.68 		
			"/>
		<path id="nnr-crc" class="st0" d="M313.05,226.82c-3.62-28.02-17.93-52.95-40.3-70.21c-22.37-17.25-50.11-24.76-78.14-21.15
			c-28.02,3.62-52.95,17.93-70.21,40.3s-24.77,50.12-21.15,78.14c3.37,26.14,16.38,51.09,34.63,67.43l9.02-9.02
			c-16.77-14.75-30.09-35.93-33.16-59.77c-3.26-25.22,3.5-50.19,19.03-70.33c15.53-20.13,37.97-33.01,63.19-36.27
			c4.14-0.53,8.27-0.8,12.38-0.8c20.91,0,41.12,6.85,57.95,19.83c20.13,15.53,33.01,37.97,36.27,63.19
			c3.26,25.22-3.5,50.19-19.03,70.32c-15.53,20.13-37.97,33.01-63.19,36.27c-7.56,0.98-15.03,1.02-22.3,0.24l-9.59,9.24
			c6.39,1.22,12.95,1.89,19.63,1.89c4.49,0,9.04-0.29,13.61-0.88c28.02-3.62,52.95-17.93,70.21-40.29
			C309.15,282.59,316.66,254.83,313.05,226.82z"/>
	</g>
</g>
</svg>
