<svg xmlns="http://www.w3.org/2000/svg" viewBox="0 0 323.9 367.31"><defs><style>.cls-1{fill:#fff;}.cls-2{fill:#231f20;}</style></defs><title>dmVIsmallLogo</title><g id="bs1"><path class="cls-1" d="M255.27,148,282.49,86.9l-8.94-4L246.7,143.16C249.64,144.63,252.49,146.24,255.27,148Z" transform="translate(-0.78 -15.69)"/><path class="cls-1" d="M246.42,143,271.6,69.94l-9.25-3.19-6.67,19.36,1.23-4.34-9.41-2.66-16.29,57.75A108.27,108.27,0,0,1,246.42,143Z" transform="translate(-0.78 -15.69)"/><path class="cls-1" d="M250,144.91l32.53-78.46-9-3.74-32.3,77.9Q245.72,142.56,250,144.91Z" transform="translate(-0.78 -15.69)"/></g><g id="bs2"><path class="cls-1" d="M228.08,135.91l7.11-41.78-5.82-1,1.68-12.65-9.69-1.29-7.14,53.74A105.38,105.38,0,0,1,228.08,135.91Z" transform="translate(-0.78 -15.69)"/></g><g id="bs3"><path class="cls-1" d="M166.33,60.49l-1.17-6.35,5.47-1-5.34-35.95,10.05-1.5,5.48,36.88,10.11-.86,6.82,80.1a108,108,0,0,0-12.87.86,111,111,0,0,0-11.28,2.07L150.54,47.33l9.82-2.59,4.25,16.09Z" transform="translate(-0.78 -15.69)"/><path class="cls-1" d="M202.2,131.85l-1.81-58.4-9.78.3L192.42,132Q197.34,131.71,202.2,131.85Z" transform="translate(-0.78 -15.69)"/><path class="cls-1" d="M209.15,132.32V84.24h-9.78v47.57Q204.31,131.84,209.15,132.32Z" transform="translate(-0.78 -15.69)"/></g><g id="bs4"><path class="cls-1" d="M123.38,119.6l16.06,29.91a106.25,106.25,0,0,1,27.84-13l-5.53-16.7-8.18,2.7-3.23-8-8.61,3.45L131,95.2l-8.83,4.2L130,116Z" transform="translate(-0.78 -15.69)"/></g><g id="bs5"><path class="cls-1" d="M135.77,153.73,89.44,90.42,81.55,96.2l19.66,26.86-6.44,5.4L68,100.65l-7,6.78,59,61.18A107.26,107.26,0,0,1,135.77,153.73Z" transform="translate(-0.78 -15.69)"/><path class="cls-1" d="M50.6,149.26l-4.71,8.58,57.51,31.53a109.67,109.67,0,0,1,10.08-15.72c1.43-1.86,2.94-3.64,4.48-5.39L26.72,91,20.4,98.47l30.37,25.71L45.2,131.6l34.06,25.58-3.71,5.76Z" transform="translate(-0.78 -15.69)"/><path class="cls-1" d="M102.9,186.15a110.27,110.27,0,0,1,8.32-12.5A107.76,107.76,0,0,1,120.64,163L64.13,120.38l-5.87,7.79L92.2,153.78l-3.71,5.75L63.66,145.86,59,154.41l11.86,6.53-4,8.66Z" transform="translate(-0.78 -15.69)"/><path class="cls-1" d="M113.48,173.65a107.57,107.57,0,0,1,9.63-10.87L41.76,85.26l-9,11.59,80.67,76.87Z" transform="translate(-0.78 -15.69)"/></g><g id="bs6"><path class="cls-1" d="M93.38,217.05A106.46,106.46,0,0,1,100.63,195L62.79,176.27,59.47,183,29.8,171l-5.51,13.6,9.22,3.73L30.74,197Z" transform="translate(-0.78 -15.69)"/></g><g id="bs7"><path class="cls-1" d="M93.19,218,33.1,207.84l-1.6,9.42.16,0-13.09-1.34-1,9.5L91.26,233A107,107,0,0,1,93.19,218Z" transform="translate(-0.78 -15.69)"/></g><g id="bs8"><path class="cls-1" d="M92,253.12c-.43-3.34-.69-6.68-.81-10l-47.56,2.81.58,9.76,17.09-1,.9,7.71,30.69-3.59C92.51,256.91,92.21,255,92,253.12Z" transform="translate(-0.78 -15.69)"/><path class="cls-1" d="M92.31,255.37l-16.62,3.38,1.43,7-7.21,1.91,2.5,9.45,6.24-1.65,1.72,5.46,17-5.35A108,108,0,0,1,92.31,255.37Z" transform="translate(-0.78 -15.69)"/></g><g id="bs9"><path class="cls-1" d="M112.65,304,.78,374.73,6,383l45.36-28.68,5.7,7.84,65-47.23A106.41,106.41,0,0,1,112.65,304Z" transform="translate(-0.78 -15.69)"/><path class="cls-1" d="M102.51,287.7l-46.05,19,2.95,7.16L31,328.34l4.81,9.44L12.36,352.26l7.71,12.48,94.43-58.33A106.23,106.23,0,0,1,102.51,287.7Z" transform="translate(-0.78 -15.69)"/><path class="cls-1" d="M182.73,133,168.18,60.12l-10,2L172.76,135C176,134.16,179.35,133.5,182.73,133Z" transform="translate(-0.78 -15.69)"/></g><g id="fs1"><path class="cls-2" d="M247.81,143.74,268.75,89.5l-7.87-3-20.74,53.7Q244,141.81,247.81,143.74Z" transform="translate(-0.78 -15.69)"/><path class="cls-2" d="M246,142.83l12.54-44.18L249,96l-12.17,42.87Q241.53,140.62,246,142.83Z" transform="translate(-0.78 -15.69)"/></g><g id="fs2"><path class="cls-2" d="M184.88,132.67c3-.38,5.9-.61,8.83-.74l-4.82-54-6.64.6-1.37-9.81-9.81,1.37,8.82,63.31C181.54,133.15,183.21,132.88,184.88,132.67Z" transform="translate(-0.78 -15.69)"/></g><g id="fs3"><path class="cls-2" d="M95.62,163.54,91.54,170l16.95,10.72c1.57-2.41,3.21-4.77,5-7.07a108.88,108.88,0,0,1,11-12.24l-5.42-6-5.89,5.36L47.4,103.12l-5.56,6.35,29.49,25.86-4.59,6Z" transform="translate(-0.78 -15.69)"/></g><g id="fs4"><path class="cls-2" d="M97.89,201.57,70,189.82l-1.79,4.24-18.2-7-3.55,9.25,47.47,18.25A107,107,0,0,1,97.89,201.57Z" transform="translate(-0.78 -15.69)"/></g><g id="fs5"><path class="cls-2" d="M106.59,295.05,41.44,332.76l4.9,8.47,65.71-38Q109.13,299.24,106.59,295.05Z" transform="translate(-0.78 -15.69)"/><path class="cls-2" d="M110.24,300.69,65.82,330l5.38,8.17,45-29.7Q113,304.7,110.24,300.69Z" transform="translate(-0.78 -15.69)"/></g><g id="tail"><path id="fTail" class="cls-1" d="M323.4,214A116.61,116.61,0,0,0,275.53,138a119.16,119.16,0,0,0-12.69-7.81l-4.91,10.67a106.65,106.65,0,0,1,10.81,6.72A105,105,0,0,1,311.83,216c.5,2.92.85,5.85,1.1,8.77l11.75-.47C324.4,220.87,324,217.45,323.4,214Z" transform="translate(-0.78 -15.69)"/></g><g id="innerCenter"><path id="nnr-crc" class="cls-1" d="M303.55,225.82A105.76,105.76,0,0,0,93.76,252.89c3.37,26.15,16.38,51.1,34.63,67.44l9-9c-16.78-14.75-30.09-35.93-33.16-59.77A95.18,95.18,0,0,1,186.47,145a97.41,97.41,0,0,1,12.37-.8A95.2,95.2,0,1,1,188.54,334L179,343.24a104.59,104.59,0,0,0,19.63,1.89,106.34,106.34,0,0,0,13.61-.88,105.77,105.77,0,0,0,91.36-118.43Z" transform="translate(-0.78 -15.69)"/></g><g id="frontCenter"><path id="crc" class="cls-2" d="M315.12,224.32A117.44,117.44,0,1,0,120.31,326.75l8.56-8.11a105.64,105.64,0,0,1,56.25-184.11,108,108,0,0,1,13.75-.88,105.7,105.7,0,1,1-19.73,209.57l-10.26,9.71a116.62,116.62,0,0,0,29.69,3.87,118.86,118.86,0,0,0,15.11-1A117.44,117.44,0,0,0,315.12,224.32Z" transform="translate(-0.78 -15.69)"/></g><g id="check"><polygon id="chck" class="cls-1" points="102.83 339.77 96.15 332.62 200.53 235.18 235.78 272.81 228.64 279.49 200.06 248.99 102.83 339.77"/></g></svg>