<svg xmlns="http://www.w3.org/2000/svg" viewBox="0 0 180 175"><defs><style>cls-10,.cls-11,.cls-12,.cls-13,.cls-6,.cls-7,.cls-8,.cls-9{fill:none;}.cls-10,.cls-11,.cls-13,.cls-14,.cls-6,.cls-8{stroke:#F2F2F2;}.cls-12,.cls-14,.cls-6{stroke-width:4.34px;}.cls-12,.cls-7,.cls-9{stroke:#231f20;}.cls-7{stroke-width:3.74px;}.cls-8{stroke-width:4.51px;}.cls-9{stroke-width:4.39px;}.cls-10{stroke-width:6.51px;}.cls-11{stroke-width:4.24px;}.cls-13{stroke-width:4.33px;}.cls-14,.cls-15{fill:#181818;}</style></defs><g id="Layer_2" data-name="Layer 2"><g id="Layer_1-2" data-name="Layer 1"><path class="cls-6" d="M164,99.68a50.36,50.36,0,0,0-26-44.07"/><polyline class="cls-6" points="117.14 104.09 117.14 30.4 117.14 104.09 117.14 104.09 138.4 28.71 117.14 104.09 117.14 104.09 149.85 30.7 117.14 104.09 144.95 23.35 117.14 104.09 117.14 104.09"/><line class="cls-6" x1="115.68" y1="104.09" x2="42.58" y2="34.42"/><path class="cls-7" d="M115.63,105.49,144,32.06Z"/><line class="cls-6" x1="115.68" y1="104.09" x2="113.25" y2="25.68"/><line class="cls-6" x1="115.68" y1="104.09" x2="55.13" y2="42.91"/><line class="cls-8" x1="115.68" y1="104.09" x2="98.93" y2="20.14"/><polyline class="cls-6" points="116.64 105.49 126.87 28.45 116.64 105.49 128.72 34.42"/><line class="cls-6" x1="115.68" y1="104.09" x2="149.85" y2="21.68"/><line class="cls-9" x1="144.79" y1="31.06" x2="127.88" y2="72.5"/><line class="cls-9" x1="139.1" y1="36.19" x2="129.88" y2="68.68"/><line class="cls-8" x1="99.41" y1="16.84" x2="115.68" y2="103.09"/><path class="cls-10" d="M92.78,93.84,53,74.13M92.78,93.84l-54.24-22m54.24,22L41.17,77.3"/><path class="cls-11" d="M104.37,98.06,40.88,87.3m63.49,10.76-69.8-7.14"/><path class="cls-10" d="M92.7,115.62,52.83,132.07M92.7,115.62,41.78,141.56M92.7,115.62,33.74,152"/><path class="cls-6" d="M28.06,161.07l76.66-48.48L50.58,151.9"/><path class="cls-6" d="M114,99,60.55,109.92M114,99,58.11,113.85M114,99l-52.5,16.54"/><path class="cls-12" d="M88.76,117.75,46,142.5Z"/><line class="cls-12" x1="56.93" y1="141.21" x2="92.35" y2="117.84"/><path class="cls-6" d="M46,104.27l67.24-4-59.39,7"/><path class="cls-6" d="M108.38,94.43,55.13,39.18m53.25,55.25L70.08,48.75m38.3,45.68-43.91-60"/><path class="cls-6" d="M104.29,92,37,35.06m67.29,57L47.9,49.67M104.29,92,60.84,64.08m43.45,28L48,61.14"/><path class="cls-13" d="M109.85,90.51,53.69,48.16m56.16,42.35L66.58,62.57m43.27,27.94L53.74,59.62m56.11,30.89L57.1,66.29"/><path class="cls-7" d="M98.93,86.3,57.29,54.22M98.93,86.3,68.15,66.85M98.93,86.3,72.63,63.24,46.34,40.18M98.93,86.3,78,63.24"/><path class="cls-6" d="M115.63,105.49,83.18,45.05m32.45,60.44-33-69.3m33,69.3L91.21,44.59m24.42,60.9L96.23,46.83"/><path class="cls-8" d="M115.07,87.65,109,16.16m6.09,71.49L102.08.33m13,87.32L102,16.65m13.06,71L95.49,13.46"/><polyline class="cls-9" points="56.74 79.25 115.68 104.09 47.95 78.06"/><path class="cls-9" d="M108.13,27.82l5.32,59.57-8.86-63.55"/><circle class="cls-14" cx="114.65" cy="99.19" r="41.2"/><rect class="cls-15" x="68.92" y="122.71" width="63.43" height="23.24" transform="translate(-64.79 105.95) rotate(-43.43)"/><circle class="cls-12" cx="114.65" cy="99.19" r="45.54"/><path class="cls-6" d="M71,149.1l44.71-41.74,14.15,15.11"/></g></g></svg>